<?xml version="1.0" standalone="no"?>
 <!DOCTYPE svg PUBLIC "-//W3C//DTD SVG 1.1//EN" 
 "http://www.w3.org/Graphics/SVG/1.1/DTD/svg11.dtd"> 
<svg xmlns="http://www.w3.org/2000/svg" version="1.1" 
    width="29.7002cm" height="21.0007cm" viewBox="0 0 116930 82680 ">
<title>SVG Picture created as Single_Transistor_Amp-F.SilkS.svg date 2017/05/25 09:10:10 </title>
  <desc>Picture generated by PCBNEW </desc>
<g style="fill:#000000; fill-opacity:1;stroke:#000000; stroke-opacity:1;
stroke-linecap:round; stroke-linejoin:round; "
 transform="translate(0 0) scale(1 1)">
</g>
<g style="fill:#000000; fill-opacity:0.0; 
stroke:#000000; stroke-width:-0.000393701; stroke-opacity:1; 
stroke-linecap:round; stroke-linejoin:round;">
</g>
<g style="fill:#000000; fill-opacity:0.0; 
stroke:#000000; stroke-width:39.3701; stroke-opacity:1; 
stroke-linecap:round; stroke-linejoin:round;">
</g>
<g style="fill:#000000; fill-opacity:0.0; 
stroke:#000000; stroke-width:59.0551; stroke-opacity:1; 
stroke-linecap:round; stroke-linejoin:round;">
<rect x="69685.9" y="65357.2" width="42519.7" height="12598.4" rx="0" />
</g>
<g style="fill:#000000; fill-opacity:0.0; 
stroke:#000000; stroke-width:39.3701; stroke-opacity:1; 
stroke-linecap:round; stroke-linejoin:round;">
</g>
<g style="fill:#000000; fill-opacity:0.0; 
stroke:#000000; stroke-width:59.0551; stroke-opacity:1; 
stroke-linecap:round; stroke-linejoin:round;">
<rect x="3937.01" y="3937.01" width="109056" height="74806" rx="0" />
</g>
<g style="fill:#000000; fill-opacity:0.0; 
stroke:#000000; stroke-width:39.3701; stroke-opacity:1; 
stroke-linecap:round; stroke-linejoin:round;">
</g>
<g style="fill:#000000; fill-opacity:0.0; 
stroke:#000000; stroke-width:59.0551; stroke-opacity:1; 
stroke-linecap:round; stroke-linejoin:round;">
<rect x="4724.41" y="4724.41" width="107481" height="73231.2" rx="0" />
</g>
<g style="fill:#000000; fill-opacity:0.0; 
stroke:#000000; stroke-width:39.3701; stroke-opacity:1; 
stroke-linecap:round; stroke-linejoin:round;">
</g>
<g style="fill:#000000; fill-opacity:0.0; 
stroke:#000000; stroke-width:59.0551; stroke-opacity:1; 
stroke-linecap:round; stroke-linejoin:round;">
<path d="M23622 4724
L23622 3937
" />
</g>
<g style="fill:#000000; fill-opacity:0.0; 
stroke:#000000; stroke-width:39.3701; stroke-opacity:1; 
stroke-linecap:round; stroke-linejoin:round;">
</g>
<g style="fill:#000000; fill-opacity:0.0; 
stroke:#000000; stroke-width:59.0551; stroke-opacity:1; 
stroke-linecap:round; stroke-linejoin:round;">
<path d="M43307 4724
L43307 3937
" />
</g>
<g style="fill:#000000; fill-opacity:0.0; 
stroke:#000000; stroke-width:39.3701; stroke-opacity:1; 
stroke-linecap:round; stroke-linejoin:round;">
</g>
<g style="fill:#000000; fill-opacity:0.0; 
stroke:#000000; stroke-width:59.0551; stroke-opacity:1; 
stroke-linecap:round; stroke-linejoin:round;">
<path d="M62992 4724
L62992 3937
" />
</g>
<g style="fill:#000000; fill-opacity:0.0; 
stroke:#000000; stroke-width:39.3701; stroke-opacity:1; 
stroke-linecap:round; stroke-linejoin:round;">
</g>
<g style="fill:#000000; fill-opacity:0.0; 
stroke:#000000; stroke-width:59.0551; stroke-opacity:1; 
stroke-linecap:round; stroke-linejoin:round;">
<path d="M82677 4724
L82677 3937
" />
</g>
<g style="fill:#000000; fill-opacity:0.0; 
stroke:#000000; stroke-width:39.3701; stroke-opacity:1; 
stroke-linecap:round; stroke-linejoin:round;">
</g>
<g style="fill:#000000; fill-opacity:0.0; 
stroke:#000000; stroke-width:59.0551; stroke-opacity:1; 
stroke-linecap:round; stroke-linejoin:round;">
<path d="M102362 4724
L102362 3937
" />
</g>
<g style="fill:#000000; fill-opacity:0.0; 
stroke:#000000; stroke-width:39.3701; stroke-opacity:1; 
stroke-linecap:round; stroke-linejoin:round;">
</g>
<g style="fill:#000000; fill-opacity:0.0; 
stroke:#000000; stroke-width:59.0551; stroke-opacity:1; 
stroke-linecap:round; stroke-linejoin:round;">
<path d="M14169 4562
L13877 4562
" />
<path d="M14023 4562
L14023 4050
L13974 4123
L13925 4172
L13877 4196
" />
</g>
<g style="fill:#000000; fill-opacity:0.0; 
stroke:#000000; stroke-width:39.3701; stroke-opacity:1; 
stroke-linecap:round; stroke-linejoin:round;">
</g>
<g style="fill:#000000; fill-opacity:0.0; 
stroke:#000000; stroke-width:59.0551; stroke-opacity:1; 
stroke-linecap:round; stroke-linejoin:round;">
<path d="M33562 4099
L33586 4074
L33635 4050
L33757 4050
L33805 4074
L33830 4099
L33854 4147
L33854 4196
L33830 4269
L33537 4562
L33854 4562
" />
</g>
<g style="fill:#000000; fill-opacity:0.0; 
stroke:#000000; stroke-width:39.3701; stroke-opacity:1; 
stroke-linecap:round; stroke-linejoin:round;">
</g>
<g style="fill:#000000; fill-opacity:0.0; 
stroke:#000000; stroke-width:59.0551; stroke-opacity:1; 
stroke-linecap:round; stroke-linejoin:round;">
<path d="M53222 4050
L53539 4050
L53368 4245
L53442 4245
L53490 4269
L53515 4294
L53539 4342
L53539 4464
L53515 4513
L53490 4537
L53442 4562
L53295 4562
L53247 4537
L53222 4513
" />
</g>
<g style="fill:#000000; fill-opacity:0.0; 
stroke:#000000; stroke-width:39.3701; stroke-opacity:1; 
stroke-linecap:round; stroke-linejoin:round;">
</g>
<g style="fill:#000000; fill-opacity:0.0; 
stroke:#000000; stroke-width:59.0551; stroke-opacity:1; 
stroke-linecap:round; stroke-linejoin:round;">
<path d="M73175 4221
L73175 4562
" />
<path d="M73053 4026
L72932 4391
L73248 4391
" />
</g>
<g style="fill:#000000; fill-opacity:0.0; 
stroke:#000000; stroke-width:39.3701; stroke-opacity:1; 
stroke-linecap:round; stroke-linejoin:round;">
</g>
<g style="fill:#000000; fill-opacity:0.0; 
stroke:#000000; stroke-width:59.0551; stroke-opacity:1; 
stroke-linecap:round; stroke-linejoin:round;">
<path d="M92885 4050
L92641 4050
L92617 4294
L92641 4269
L92690 4245
L92812 4245
L92860 4269
L92885 4294
L92909 4342
L92909 4464
L92885 4513
L92860 4537
L92812 4562
L92690 4562
L92641 4537
L92617 4513
" />
</g>
<g style="fill:#000000; fill-opacity:0.0; 
stroke:#000000; stroke-width:39.3701; stroke-opacity:1; 
stroke-linecap:round; stroke-linejoin:round;">
</g>
<g style="fill:#000000; fill-opacity:0.0; 
stroke:#000000; stroke-width:59.0551; stroke-opacity:1; 
stroke-linecap:round; stroke-linejoin:round;">
<path d="M112545 4050
L112448 4050
L112399 4074
L112375 4099
L112326 4172
L112302 4269
L112302 4464
L112326 4513
L112350 4537
L112399 4562
L112497 4562
L112545 4537
L112570 4513
L112594 4464
L112594 4342
L112570 4294
L112545 4269
L112497 4245
L112399 4245
L112350 4269
L112326 4294
L112302 4342
" />
</g>
<g style="fill:#000000; fill-opacity:0.0; 
stroke:#000000; stroke-width:39.3701; stroke-opacity:1; 
stroke-linecap:round; stroke-linejoin:round;">
</g>
<g style="fill:#000000; fill-opacity:0.0; 
stroke:#000000; stroke-width:59.0551; stroke-opacity:1; 
stroke-linecap:round; stroke-linejoin:round;">
<path d="M23622 77955
L23622 78742
" />
</g>
<g style="fill:#000000; fill-opacity:0.0; 
stroke:#000000; stroke-width:39.3701; stroke-opacity:1; 
stroke-linecap:round; stroke-linejoin:round;">
</g>
<g style="fill:#000000; fill-opacity:0.0; 
stroke:#000000; stroke-width:59.0551; stroke-opacity:1; 
stroke-linecap:round; stroke-linejoin:round;">
<path d="M43307 77955
L43307 78742
" />
</g>
<g style="fill:#000000; fill-opacity:0.0; 
stroke:#000000; stroke-width:39.3701; stroke-opacity:1; 
stroke-linecap:round; stroke-linejoin:round;">
</g>
<g style="fill:#000000; fill-opacity:0.0; 
stroke:#000000; stroke-width:59.0551; stroke-opacity:1; 
stroke-linecap:round; stroke-linejoin:round;">
<path d="M62992 77955
L62992 78742
" />
</g>
<g style="fill:#000000; fill-opacity:0.0; 
stroke:#000000; stroke-width:39.3701; stroke-opacity:1; 
stroke-linecap:round; stroke-linejoin:round;">
</g>
<g style="fill:#000000; fill-opacity:0.0; 
stroke:#000000; stroke-width:59.0551; stroke-opacity:1; 
stroke-linecap:round; stroke-linejoin:round;">
<path d="M82677 77955
L82677 78742
" />
</g>
<g style="fill:#000000; fill-opacity:0.0; 
stroke:#000000; stroke-width:39.3701; stroke-opacity:1; 
stroke-linecap:round; stroke-linejoin:round;">
</g>
<g style="fill:#000000; fill-opacity:0.0; 
stroke:#000000; stroke-width:59.0551; stroke-opacity:1; 
stroke-linecap:round; stroke-linejoin:round;">
<path d="M102362 77955
L102362 78742
" />
</g>
<g style="fill:#000000; fill-opacity:0.0; 
stroke:#000000; stroke-width:39.3701; stroke-opacity:1; 
stroke-linecap:round; stroke-linejoin:round;">
</g>
<g style="fill:#000000; fill-opacity:0.0; 
stroke:#000000; stroke-width:59.0551; stroke-opacity:1; 
stroke-linecap:round; stroke-linejoin:round;">
<path d="M14169 78580
L13877 78580
" />
<path d="M14023 78580
L14023 78069
L13974 78142
L13925 78190
L13877 78215
" />
</g>
<g style="fill:#000000; fill-opacity:0.0; 
stroke:#000000; stroke-width:39.3701; stroke-opacity:1; 
stroke-linecap:round; stroke-linejoin:round;">
</g>
<g style="fill:#000000; fill-opacity:0.0; 
stroke:#000000; stroke-width:59.0551; stroke-opacity:1; 
stroke-linecap:round; stroke-linejoin:round;">
<path d="M33562 78117
L33586 78093
L33635 78069
L33757 78069
L33805 78093
L33830 78117
L33854 78166
L33854 78215
L33830 78288
L33537 78580
L33854 78580
" />
</g>
<g style="fill:#000000; fill-opacity:0.0; 
stroke:#000000; stroke-width:39.3701; stroke-opacity:1; 
stroke-linecap:round; stroke-linejoin:round;">
</g>
<g style="fill:#000000; fill-opacity:0.0; 
stroke:#000000; stroke-width:59.0551; stroke-opacity:1; 
stroke-linecap:round; stroke-linejoin:round;">
<path d="M53222 78069
L53539 78069
L53368 78263
L53442 78263
L53490 78288
L53515 78312
L53539 78361
L53539 78483
L53515 78532
L53490 78556
L53442 78580
L53295 78580
L53247 78556
L53222 78532
" />
</g>
<g style="fill:#000000; fill-opacity:0.0; 
stroke:#000000; stroke-width:39.3701; stroke-opacity:1; 
stroke-linecap:round; stroke-linejoin:round;">
</g>
<g style="fill:#000000; fill-opacity:0.0; 
stroke:#000000; stroke-width:59.0551; stroke-opacity:1; 
stroke-linecap:round; stroke-linejoin:round;">
<path d="M73175 78239
L73175 78580
" />
<path d="M73053 78044
L72932 78410
L73248 78410
" />
</g>
<g style="fill:#000000; fill-opacity:0.0; 
stroke:#000000; stroke-width:39.3701; stroke-opacity:1; 
stroke-linecap:round; stroke-linejoin:round;">
</g>
<g style="fill:#000000; fill-opacity:0.0; 
stroke:#000000; stroke-width:59.0551; stroke-opacity:1; 
stroke-linecap:round; stroke-linejoin:round;">
<path d="M92885 78069
L92641 78069
L92617 78312
L92641 78288
L92690 78263
L92812 78263
L92860 78288
L92885 78312
L92909 78361
L92909 78483
L92885 78532
L92860 78556
L92812 78580
L92690 78580
L92641 78556
L92617 78532
" />
</g>
<g style="fill:#000000; fill-opacity:0.0; 
stroke:#000000; stroke-width:39.3701; stroke-opacity:1; 
stroke-linecap:round; stroke-linejoin:round;">
</g>
<g style="fill:#000000; fill-opacity:0.0; 
stroke:#000000; stroke-width:59.0551; stroke-opacity:1; 
stroke-linecap:round; stroke-linejoin:round;">
<path d="M112545 78069
L112448 78069
L112399 78093
L112375 78117
L112326 78190
L112302 78288
L112302 78483
L112326 78532
L112350 78556
L112399 78580
L112497 78580
L112545 78556
L112570 78532
L112594 78483
L112594 78361
L112570 78312
L112545 78288
L112497 78263
L112399 78263
L112350 78288
L112326 78312
L112302 78361
" />
</g>
<g style="fill:#000000; fill-opacity:0.0; 
stroke:#000000; stroke-width:39.3701; stroke-opacity:1; 
stroke-linecap:round; stroke-linejoin:round;">
</g>
<g style="fill:#000000; fill-opacity:0.0; 
stroke:#000000; stroke-width:59.0551; stroke-opacity:1; 
stroke-linecap:round; stroke-linejoin:round;">
<path d="M3937 23622
L4724 23622
" />
</g>
<g style="fill:#000000; fill-opacity:0.0; 
stroke:#000000; stroke-width:39.3701; stroke-opacity:1; 
stroke-linecap:round; stroke-linejoin:round;">
</g>
<g style="fill:#000000; fill-opacity:0.0; 
stroke:#000000; stroke-width:59.0551; stroke-opacity:1; 
stroke-linecap:round; stroke-linejoin:round;">
<path d="M3937 43307
L4724 43307
" />
</g>
<g style="fill:#000000; fill-opacity:0.0; 
stroke:#000000; stroke-width:39.3701; stroke-opacity:1; 
stroke-linecap:round; stroke-linejoin:round;">
</g>
<g style="fill:#000000; fill-opacity:0.0; 
stroke:#000000; stroke-width:59.0551; stroke-opacity:1; 
stroke-linecap:round; stroke-linejoin:round;">
<path d="M3937 62992
L4724 62992
" />
</g>
<g style="fill:#000000; fill-opacity:0.0; 
stroke:#000000; stroke-width:39.3701; stroke-opacity:1; 
stroke-linecap:round; stroke-linejoin:round;">
</g>
<g style="fill:#000000; fill-opacity:0.0; 
stroke:#000000; stroke-width:59.0551; stroke-opacity:1; 
stroke-linecap:round; stroke-linejoin:round;">
<path d="M4208 13864
L4452 13864
" />
<path d="M4160 14011
L4330 13499
L4501 14011
" />
</g>
<g style="fill:#000000; fill-opacity:0.0; 
stroke:#000000; stroke-width:39.3701; stroke-opacity:1; 
stroke-linecap:round; stroke-linejoin:round;">
</g>
<g style="fill:#000000; fill-opacity:0.0; 
stroke:#000000; stroke-width:59.0551; stroke-opacity:1; 
stroke-linecap:round; stroke-linejoin:round;">
<path d="M4367 33428
L4440 33452
L4464 33476
L4489 33525
L4489 33598
L4464 33647
L4440 33671
L4391 33696
L4196 33696
L4196 33184
L4367 33184
L4416 33208
L4440 33233
L4464 33281
L4464 33330
L4440 33379
L4416 33403
L4367 33428
L4196 33428
" />
</g>
<g style="fill:#000000; fill-opacity:0.0; 
stroke:#000000; stroke-width:39.3701; stroke-opacity:1; 
stroke-linecap:round; stroke-linejoin:round;">
</g>
<g style="fill:#000000; fill-opacity:0.0; 
stroke:#000000; stroke-width:59.0551; stroke-opacity:1; 
stroke-linecap:round; stroke-linejoin:round;">
<path d="M4489 53332
L4464 53356
L4391 53381
L4342 53381
L4269 53356
L4221 53308
L4196 53259
L4172 53161
L4172 53088
L4196 52991
L4221 52942
L4269 52893
L4342 52869
L4391 52869
L4464 52893
L4489 52918
" />
</g>
<g style="fill:#000000; fill-opacity:0.0; 
stroke:#000000; stroke-width:39.3701; stroke-opacity:1; 
stroke-linecap:round; stroke-linejoin:round;">
</g>
<g style="fill:#000000; fill-opacity:0.0; 
stroke:#000000; stroke-width:59.0551; stroke-opacity:1; 
stroke-linecap:round; stroke-linejoin:round;">
<path d="M4196 73066
L4196 72554
L4318 72554
L4391 72578
L4440 72627
L4464 72676
L4489 72773
L4489 72846
L4464 72944
L4440 72993
L4391 73041
L4318 73066
L4196 73066
" />
</g>
<g style="fill:#000000; fill-opacity:0.0; 
stroke:#000000; stroke-width:39.3701; stroke-opacity:1; 
stroke-linecap:round; stroke-linejoin:round;">
</g>
<g style="fill:#000000; fill-opacity:0.0; 
stroke:#000000; stroke-width:59.0551; stroke-opacity:1; 
stroke-linecap:round; stroke-linejoin:round;">
<path d="M112992 23622
L112205 23622
" />
</g>
<g style="fill:#000000; fill-opacity:0.0; 
stroke:#000000; stroke-width:39.3701; stroke-opacity:1; 
stroke-linecap:round; stroke-linejoin:round;">
</g>
<g style="fill:#000000; fill-opacity:0.0; 
stroke:#000000; stroke-width:59.0551; stroke-opacity:1; 
stroke-linecap:round; stroke-linejoin:round;">
<path d="M112992 43307
L112205 43307
" />
</g>
<g style="fill:#000000; fill-opacity:0.0; 
stroke:#000000; stroke-width:39.3701; stroke-opacity:1; 
stroke-linecap:round; stroke-linejoin:round;">
</g>
<g style="fill:#000000; fill-opacity:0.0; 
stroke:#000000; stroke-width:59.0551; stroke-opacity:1; 
stroke-linecap:round; stroke-linejoin:round;">
<path d="M112992 62992
L112205 62992
" />
</g>
<g style="fill:#000000; fill-opacity:0.0; 
stroke:#000000; stroke-width:39.3701; stroke-opacity:1; 
stroke-linecap:round; stroke-linejoin:round;">
</g>
<g style="fill:#000000; fill-opacity:0.0; 
stroke:#000000; stroke-width:59.0551; stroke-opacity:1; 
stroke-linecap:round; stroke-linejoin:round;">
<path d="M112477 13864
L112721 13864
" />
<path d="M112428 14011
L112599 13499
L112769 14011
" />
</g>
<g style="fill:#000000; fill-opacity:0.0; 
stroke:#000000; stroke-width:39.3701; stroke-opacity:1; 
stroke-linecap:round; stroke-linejoin:round;">
</g>
<g style="fill:#000000; fill-opacity:0.0; 
stroke:#000000; stroke-width:59.0551; stroke-opacity:1; 
stroke-linecap:round; stroke-linejoin:round;">
<path d="M112635 33428
L112708 33452
L112733 33476
L112757 33525
L112757 33598
L112733 33647
L112708 33671
L112660 33696
L112465 33696
L112465 33184
L112635 33184
L112684 33208
L112708 33233
L112733 33281
L112733 33330
L112708 33379
L112684 33403
L112635 33428
L112465 33428
" />
</g>
<g style="fill:#000000; fill-opacity:0.0; 
stroke:#000000; stroke-width:39.3701; stroke-opacity:1; 
stroke-linecap:round; stroke-linejoin:round;">
</g>
<g style="fill:#000000; fill-opacity:0.0; 
stroke:#000000; stroke-width:59.0551; stroke-opacity:1; 
stroke-linecap:round; stroke-linejoin:round;">
<path d="M112757 53332
L112733 53356
L112660 53381
L112611 53381
L112538 53356
L112489 53308
L112465 53259
L112440 53161
L112440 53088
L112465 52991
L112489 52942
L112538 52893
L112611 52869
L112660 52869
L112733 52893
L112757 52918
" />
</g>
<g style="fill:#000000; fill-opacity:0.0; 
stroke:#000000; stroke-width:39.3701; stroke-opacity:1; 
stroke-linecap:round; stroke-linejoin:round;">
</g>
<g style="fill:#000000; fill-opacity:0.0; 
stroke:#000000; stroke-width:59.0551; stroke-opacity:1; 
stroke-linecap:round; stroke-linejoin:round;">
<path d="M112465 73066
L112465 72554
L112587 72554
L112660 72578
L112708 72627
L112733 72676
L112757 72773
L112757 72846
L112733 72944
L112708 72993
L112660 73041
L112587 73066
L112465 73066
" />
</g>
<g style="fill:#000000; fill-opacity:0.0; 
stroke:#000000; stroke-width:39.3701; stroke-opacity:1; 
stroke-linecap:round; stroke-linejoin:round;">
</g>
<g style="fill:#000000; fill-opacity:0.0; 
stroke:#000000; stroke-width:59.0551; stroke-opacity:1; 
stroke-linecap:round; stroke-linejoin:round;">
<path d="M78881 76293
L78881 75703
L79022 75703
L79106 75731
L79162 75787
L79190 75843
L79219 75956
L79219 76040
L79190 76153
L79162 76209
L79106 76265
L79022 76293
L78881 76293
" />
<path d="M79725 76293
L79725 75984
L79697 75928
L79640 75899
L79528 75899
L79472 75928
" />
<path d="M79725 76265
L79669 76293
L79528 76293
L79472 76265
L79444 76209
L79444 76153
L79472 76096
L79528 76068
L79669 76068
L79725 76040
" />
<path d="M79922 75899
L80147 75899
" />
<path d="M80006 75703
L80006 76209
L80034 76265
L80090 76293
L80147 76293
" />
<path d="M80568 76265
L80512 76293
L80400 76293
L80343 76265
L80315 76209
L80315 75984
L80343 75928
L80400 75899
L80512 75899
L80568 75928
L80597 75984
L80597 76040
L80315 76096
" />
<path d="M80850 76237
L80878 76265
L80850 76293
L80822 76265
L80850 76237
L80850 76293
" />
<path d="M80850 75928
L80878 75956
L80850 75984
L80822 75956
L80850 75928
L80850 75984
" />
<path d="M81553 75759
L81581 75731
L81637 75703
L81778 75703
L81834 75731
L81862 75759
L81890 75815
L81890 75871
L81862 75956
L81525 76293
L81890 76293
" />
<path d="M82256 75703
L82312 75703
L82368 75731
L82396 75759
L82424 75815
L82453 75928
L82453 76068
L82424 76181
L82396 76237
L82368 76265
L82312 76293
L82256 76293
L82199 76265
L82171 76237
L82143 76181
L82115 76068
L82115 75928
L82143 75815
L82171 75759
L82199 75731
L82256 75703
" />
<path d="M83015 76293
L82678 76293
" />
<path d="M82846 76293
L82846 75703
L82790 75787
L82734 75843
L82678 75871
" />
<path d="M83212 75703
L83606 75703
L83352 76293
" />
<path d="M83831 76068
L84280 76068
" />
<path d="M84674 75703
L84730 75703
L84787 75731
L84815 75759
L84843 75815
L84871 75928
L84871 76068
L84843 76181
L84815 76237
L84787 76265
L84730 76293
L84674 76293
L84618 76265
L84590 76237
L84562 76181
L84534 76068
L84534 75928
L84562 75815
L84590 75759
L84618 75731
L84674 75703
" />
<path d="M85405 75703
L85124 75703
L85096 75984
L85124 75956
L85180 75928
L85321 75928
L85377 75956
L85405 75984
L85433 76040
L85433 76181
L85405 76237
L85377 76265
L85321 76293
L85180 76293
L85124 76265
L85096 76237
" />
<path d="M85687 76068
L86136 76068
" />
<path d="M86390 75759
L86418 75731
L86474 75703
L86615 75703
L86671 75731
L86699 75759
L86727 75815
L86727 75871
L86699 75956
L86361 76293
L86727 76293
" />
<path d="M87233 75899
L87233 76293
" />
<path d="M87093 75674
L86952 76096
L87318 76096
" />
</g>
<g style="fill:#000000; fill-opacity:0.0; 
stroke:#000000; stroke-width:39.3701; stroke-opacity:1; 
stroke-linecap:round; stroke-linejoin:round;">
</g>
<g style="fill:#000000; fill-opacity:0.0; 
stroke:#000000; stroke-width:59.0551; stroke-opacity:1; 
stroke-linecap:round; stroke-linejoin:round;">
<path d="M69685 76577
L112205 76577
" />
</g>
<g style="fill:#000000; fill-opacity:0.0; 
stroke:#000000; stroke-width:39.3701; stroke-opacity:1; 
stroke-linecap:round; stroke-linejoin:round;">
</g>
<g style="fill:#000000; fill-opacity:0.0; 
stroke:#000000; stroke-width:59.0551; stroke-opacity:1; 
stroke-linecap:round; stroke-linejoin:round;">
<path d="M70220 77395
L70220 76805
" />
<path d="M70557 77395
L70304 77058
" />
<path d="M70557 76805
L70220 77142
" />
<path d="M70810 77395
L70810 77002
" />
<path d="M70810 76805
L70782 76833
L70810 76861
L70838 76833
L70810 76805
L70810 76861
" />
<path d="M71429 77339
L71401 77367
L71316 77395
L71260 77395
L71176 77367
L71120 77311
L71091 77255
L71063 77142
L71063 77058
L71091 76946
L71120 76889
L71176 76833
L71260 76805
L71316 76805
L71401 76833
L71429 76861
" />
<path d="M71935 77395
L71935 77086
L71907 77030
L71851 77002
L71738 77002
L71682 77030
" />
<path d="M71935 77367
L71879 77395
L71738 77395
L71682 77367
L71654 77311
L71654 77255
L71682 77199
L71738 77171
L71879 77171
L71935 77142
" />
<path d="M72469 77395
L72469 76805
" />
<path d="M72469 77367
L72413 77395
L72301 77395
L72244 77367
L72216 77339
L72188 77283
L72188 77114
L72216 77058
L72244 77030
L72301 77002
L72413 77002
L72469 77030
" />
<path d="M73201 77086
L73397 77086
" />
<path d="M73482 77395
L73201 77395
L73201 76805
L73482 76805
" />
<path d="M73735 77339
L73763 77367
L73735 77395
L73707 77367
L73735 77339
L73735 77395
" />
<path d="M74016 77395
L74016 76805
L74157 76805
L74241 76833
L74297 76889
L74325 76946
L74354 77058
L74354 77142
L74325 77255
L74297 77311
L74241 77367
L74157 77395
L74016 77395
" />
<path d="M74607 77339
L74635 77367
L74607 77395
L74579 77367
L74607 77339
L74607 77395
" />
<path d="M74860 77227
L75141 77227
" />
<path d="M74804 77395
L75000 76805
L75197 77395
" />
<path d="M75394 77339
L75422 77367
L75394 77395
L75366 77367
L75394 77339
L75394 77395
" />
<path d="M76575 77395
L76575 76805
" />
<path d="M76631 77171
L76800 77395
" />
<path d="M76800 77002
L76575 77227
" />
<path d="M77053 77395
L77053 77002
" />
<path d="M77053 76805
L77025 76833
L77053 76861
L77081 76833
L77053 76805
L77053 76861
" />
<path d="M77588 77367
L77531 77395
L77419 77395
L77363 77367
L77334 77339
L77306 77283
L77306 77114
L77334 77058
L77363 77030
L77419 77002
L77531 77002
L77588 77030
" />
<path d="M78094 77395
L78094 77086
L78066 77030
L78009 77002
L77897 77002
L77841 77030
" />
<path d="M78094 77367
L78037 77395
L77897 77395
L77841 77367
L77813 77311
L77813 77255
L77841 77199
L77897 77171
L78037 77171
L78094 77142
" />
<path d="M78628 77395
L78628 76805
" />
<path d="M78628 77367
L78572 77395
L78459 77395
L78403 77367
L78375 77339
L78347 77283
L78347 77114
L78375 77058
L78403 77030
L78459 77002
L78572 77002
L78628 77030
" />
<path d="M79612 77002
L79612 77395
" />
<path d="M79472 76777
L79331 77199
L79697 77199
" />
<path d="M79922 77339
L79950 77367
L79922 77395
L79894 77367
L79922 77339
L79922 77395
" />
<path d="M80315 76805
L80372 76805
L80428 76833
L80456 76861
L80484 76917
L80512 77030
L80512 77171
L80484 77283
L80456 77339
L80428 77367
L80372 77395
L80315 77395
L80259 77367
L80231 77339
L80203 77283
L80175 77171
L80175 77030
L80203 76917
L80231 76861
L80259 76833
L80315 76805
" />
<path d="M80765 77339
L80793 77367
L80765 77395
L80737 77367
L80765 77339
L80765 77395
" />
<path d="M81328 76805
L81046 76805
L81018 77086
L81046 77058
L81103 77030
L81243 77030
L81300 77058
L81328 77086
L81356 77142
L81356 77283
L81328 77339
L81300 77367
L81243 77395
L81103 77395
L81046 77367
L81018 77339
" />
</g>
<g style="fill:#000000; fill-opacity:0.0; 
stroke:#000000; stroke-width:39.3701; stroke-opacity:1; 
stroke-linecap:round; stroke-linejoin:round;">
</g>
<g style="fill:#000000; fill-opacity:0.0; 
stroke:#000000; stroke-width:59.0551; stroke-opacity:1; 
stroke-linecap:round; stroke-linejoin:round;">
<path d="M69685 75396
L112205 75396
" />
</g>
<g style="fill:#000000; fill-opacity:0.0; 
stroke:#000000; stroke-width:39.3701; stroke-opacity:1; 
stroke-linecap:round; stroke-linejoin:round;">
</g>
<g style="fill:#000000; fill-opacity:0.0; 
stroke:#000000; stroke-width:118.11; stroke-opacity:1; 
stroke-linecap:round; stroke-linejoin:round;">
<path d="M104022 76293
L103825 76012
" />
<path d="M103684 76293
L103684 75703
L103909 75703
L103965 75731
L103994 75759
L104022 75815
L104022 75899
L103994 75956
L103965 75984
L103909 76012
L103684 76012
" />
<path d="M104500 76265
L104444 76293
L104331 76293
L104275 76265
L104247 76209
L104247 75984
L104275 75928
L104331 75899
L104444 75899
L104500 75928
L104528 75984
L104528 76040
L104247 76096
" />
<path d="M104725 75899
L104865 76293
L105006 75899
" />
<path d="M105231 76237
L105259 76265
L105231 76293
L105203 76265
L105231 76237
L105231 76293
" />
<path d="M105231 75928
L105259 75956
L105231 75984
L105203 75956
L105231 75928
L105231 75984
" />
<path d="M106271 76293
L105934 76293
" />
<path d="M106103 76293
L106103 75703
L106046 75787
L105990 75843
L105934 75871
" />
<path d="M106525 76237
L106553 76265
L106525 76293
L106496 76265
L106525 76237
L106525 76293
" />
<path d="M106918 75703
L106974 75703
L107031 75731
L107059 75759
L107087 75815
L107115 75928
L107115 76068
L107087 76181
L107059 76237
L107031 76265
L106974 76293
L106918 76293
L106862 76265
L106834 76237
L106806 76181
L106778 76068
L106778 75928
L106806 75815
L106834 75759
L106862 75731
L106918 75703
" />
</g>
<g style="fill:#000000; fill-opacity:0.0; 
stroke:#000000; stroke-width:39.3701; stroke-opacity:1; 
stroke-linecap:round; stroke-linejoin:round;">
</g>
<g style="fill:#000000; fill-opacity:0.0; 
stroke:#000000; stroke-width:59.0551; stroke-opacity:1; 
stroke-linecap:round; stroke-linejoin:round;">
<path d="M70192 76265
L70276 76293
L70417 76293
L70473 76265
L70501 76237
L70529 76181
L70529 76124
L70501 76068
L70473 76040
L70417 76012
L70304 75984
L70248 75956
L70220 75928
L70192 75871
L70192 75815
L70220 75759
L70248 75731
L70304 75703
L70445 75703
L70529 75731
" />
<path d="M70782 76293
L70782 75899
" />
<path d="M70782 75703
L70754 75731
L70782 75759
L70810 75731
L70782 75703
L70782 75759
" />
<path d="M71007 75899
L71316 75899
L71007 76293
L71316 76293
" />
<path d="M71766 76265
L71710 76293
L71598 76293
L71541 76265
L71513 76209
L71513 75984
L71541 75928
L71598 75899
L71710 75899
L71766 75928
L71795 75984
L71795 76040
L71513 76096
" />
<path d="M72048 76237
L72076 76265
L72048 76293
L72019 76265
L72048 76237
L72048 76293
" />
<path d="M72048 75928
L72076 75956
L72048 75984
L72019 75956
L72048 75928
L72048 75984
" />
<path d="M72751 76124
L73032 76124
" />
<path d="M72694 76293
L72891 75703
L73088 76293
" />
<path d="M73538 75899
L73538 76293
" />
<path d="M73397 75674
L73257 76096
L73622 76096
" />
</g>
<g style="fill:#000000; fill-opacity:0.0; 
stroke:#000000; stroke-width:39.3701; stroke-opacity:1; 
stroke-linecap:round; stroke-linejoin:round;">
</g>
<g style="fill:#000000; fill-opacity:0.0; 
stroke:#000000; stroke-width:59.0551; stroke-opacity:1; 
stroke-linecap:round; stroke-linejoin:round;">
<path d="M103684 77395
L103684 76805
" />
<path d="M104219 77395
L104219 76805
" />
<path d="M104219 77367
L104162 77395
L104050 77395
L103994 77367
L103965 77339
L103937 77283
L103937 77114
L103965 77058
L103994 77030
L104050 77002
L104162 77002
L104219 77030
" />
<path d="M104500 77339
L104528 77367
L104500 77395
L104472 77367
L104500 77339
L104500 77395
" />
<path d="M104500 77030
L104528 77058
L104500 77086
L104472 77058
L104500 77030
L104500 77086
" />
<path d="M105540 77395
L105203 77395
" />
<path d="M105372 77395
L105372 76805
L105315 76889
L105259 76946
L105203 76974
" />
<path d="M106215 76777
L105709 77536
" />
<path d="M106721 77395
L106384 77395
" />
<path d="M106553 77395
L106553 76805
L106496 76889
L106440 76946
L106384 76974
" />
</g>
<g style="fill:#000000; fill-opacity:0.0; 
stroke:#000000; stroke-width:39.3701; stroke-opacity:1; 
stroke-linecap:round; stroke-linejoin:round;">
</g>
<g style="fill:#000000; fill-opacity:0.0; 
stroke:#000000; stroke-width:59.0551; stroke-opacity:1; 
stroke-linecap:round; stroke-linejoin:round;">
<path d="M69685 73821
L112205 73821
" />
</g>
<g style="fill:#000000; fill-opacity:0.0; 
stroke:#000000; stroke-width:39.3701; stroke-opacity:1; 
stroke-linecap:round; stroke-linejoin:round;">
</g>
<g style="fill:#000000; fill-opacity:0.0; 
stroke:#000000; stroke-width:157.48; stroke-opacity:1; 
stroke-linecap:round; stroke-linejoin:round;">
<path d="M70257 74099
L70707 74099
" />
<path d="M70384 74886
L70482 74099
" />
<path d="M70871 74886
L70937 74361
" />
<path d="M70970 74099
L70927 74136
L70960 74174
L71002 74136
L70970 74099
L70960 74174
" />
<path d="M71199 74361
L71499 74361
" />
<path d="M71345 74099
L71260 74774
L71288 74849
L71359 74886
L71434 74886
" />
<path d="M71809 74886
L71738 74849
L71710 74774
L71795 74099
" />
<path d="M72413 74849
L72334 74886
L72184 74886
L72113 74849
L72085 74774
L72123 74474
L72169 74399
L72249 74361
L72399 74361
L72469 74399
L72498 74474
L72488 74549
L72104 74624
" />
<path d="M72793 74811
L72826 74849
L72783 74886
L72751 74849
L72793 74811
L72783 74886
" />
<path d="M72844 74399
L72877 74436
L72835 74474
L72802 74436
L72844 74399
L72835 74474
" />
<path d="M74007 74099
L74157 74099
L74227 74136
L74293 74211
L74311 74361
L74279 74624
L74222 74774
L74138 74849
L74058 74886
L73908 74886
L73838 74849
L73772 74774
L73754 74624
L73786 74361
L73843 74211
L73927 74136
L74007 74099
" />
<path d="M74649 74361
L74583 74886
" />
<path d="M74639 74436
L74682 74399
L74761 74361
L74874 74361
L74944 74399
L74972 74474
L74921 74886
" />
<path d="M75600 74849
L75521 74886
L75371 74886
L75300 74849
L75272 74774
L75310 74474
L75357 74399
L75436 74361
L75586 74361
L75657 74399
L75685 74474
L75675 74549
L75291 74624
" />
<path d="M76556 74099
L77006 74099
" />
<path d="M76683 74886
L76781 74099
" />
<path d="M77170 74886
L77236 74361
" />
<path d="M77217 74511
L77264 74436
L77306 74399
L77386 74361
L77461 74361
" />
<path d="M77995 74886
L78047 74474
L78019 74399
L77948 74361
L77798 74361
L77719 74399
" />
<path d="M78000 74849
L77920 74886
L77733 74886
L77663 74849
L77634 74774
L77644 74699
L77691 74624
L77770 74586
L77958 74586
L78037 74549
" />
<path d="M78436 74361
L78370 74886
" />
<path d="M78427 74436
L78469 74399
L78548 74361
L78661 74361
L78731 74399
L78759 74474
L78708 74886
" />
<path d="M79050 74849
L79120 74886
L79270 74886
L79350 74849
L79397 74774
L79401 74736
L79373 74661
L79303 74624
L79190 74624
L79120 74586
L79092 74511
L79097 74474
L79144 74399
L79223 74361
L79336 74361
L79406 74399
" />
<path d="M79720 74886
L79786 74361
" />
<path d="M79819 74099
L79776 74136
L79809 74174
L79851 74136
L79819 74099
L79809 74174
" />
<path d="M80062 74849
L80133 74886
L80283 74886
L80362 74849
L80409 74774
L80414 74736
L80386 74661
L80315 74624
L80203 74624
L80133 74586
L80104 74511
L80109 74474
L80156 74399
L80236 74361
L80348 74361
L80418 74399
" />
<path d="M80686 74361
L80986 74361
" />
<path d="M80831 74099
L80747 74774
L80775 74849
L80845 74886
L80920 74886
" />
<path d="M81295 74886
L81225 74849
L81192 74811
L81164 74736
L81192 74511
L81239 74436
L81281 74399
L81361 74361
L81473 74361
L81543 74399
L81576 74436
L81604 74511
L81576 74736
L81529 74811
L81487 74849
L81407 74886
L81295 74886
" />
<path d="M81895 74886
L81960 74361
" />
<path d="M81942 74511
L81989 74436
L82031 74399
L82110 74361
L82185 74361
" />
<path d="M82973 74661
L83348 74661
" />
<path d="M82870 74886
L83231 74099
L83395 74886
" />
<path d="M83657 74886
L83723 74361
" />
<path d="M83713 74436
L83756 74399
L83835 74361
L83948 74361
L84018 74399
L84046 74474
L83995 74886
" />
<path d="M84046 74474
L84093 74399
L84173 74361
L84285 74361
L84355 74399
L84384 74474
L84332 74886
" />
<path d="M84773 74361
L84674 75149
" />
<path d="M84768 74399
L84848 74361
L84998 74361
L85068 74399
L85101 74436
L85129 74511
L85101 74736
L85054 74811
L85012 74849
L84932 74886
L84782 74886
L84712 74849
" />
</g>
<g style="fill:#000000; fill-opacity:0.0; 
stroke:#000000; stroke-width:39.3701; stroke-opacity:1; 
stroke-linecap:round; stroke-linejoin:round;">
</g>
<g style="fill:#000000; fill-opacity:0.0; 
stroke:#000000; stroke-width:59.0551; stroke-opacity:1; 
stroke-linecap:round; stroke-linejoin:round;">
<path d="M70417 73070
L70220 73070
" />
<path d="M70220 73380
L70220 72789
L70501 72789
" />
<path d="M70726 73380
L70726 72986
" />
<path d="M70726 72789
L70698 72817
L70726 72845
L70754 72817
L70726 72789
L70726 72845
" />
<path d="M71091 73380
L71035 73352
L71007 73295
L71007 72789
" />
<path d="M71541 73352
L71485 73380
L71373 73380
L71316 73352
L71288 73295
L71288 73070
L71316 73014
L71373 72986
L71485 72986
L71541 73014
L71570 73070
L71570 73127
L71288 73183
" />
<path d="M71823 73323
L71851 73352
L71823 73380
L71795 73352
L71823 73323
L71823 73380
" />
<path d="M71823 73014
L71851 73042
L71823 73070
L71795 73042
L71823 73014
L71823 73070
" />
<path d="M72526 73352
L72610 73380
L72751 73380
L72807 73352
L72835 73323
L72863 73267
L72863 73211
L72835 73155
L72807 73127
L72751 73099
L72638 73070
L72582 73042
L72554 73014
L72526 72958
L72526 72902
L72554 72845
L72582 72817
L72638 72789
L72779 72789
L72863 72817
" />
<path d="M73116 73380
L73116 72986
" />
<path d="M73116 72789
L73088 72817
L73116 72845
L73144 72817
L73116 72789
L73116 72845
" />
<path d="M73397 72986
L73397 73380
" />
<path d="M73397 73042
L73426 73014
L73482 72986
L73566 72986
L73622 73014
L73651 73070
L73651 73380
" />
<path d="M74185 72986
L74185 73464
L74157 73520
L74129 73548
L74072 73577
L73988 73577
L73932 73548
" />
<path d="M74185 73352
L74129 73380
L74016 73380
L73960 73352
L73932 73323
L73904 73267
L73904 73099
L73932 73042
L73960 73014
L74016 72986
L74129 72986
L74185 73014
" />
<path d="M74550 73380
L74494 73352
L74466 73295
L74466 72789
" />
<path d="M75000 73352
L74944 73380
L74832 73380
L74775 73352
L74747 73295
L74747 73070
L74775 73014
L74832 72986
L74944 72986
L75000 73014
L75028 73070
L75028 73127
L74747 73183
" />
<path d="M75141 73436
L75591 73436
" />
<path d="M75647 72789
L75985 72789
" />
<path d="M75816 73380
L75816 72789
" />
<path d="M76181 73380
L76181 72986
" />
<path d="M76181 73099
L76210 73042
L76238 73014
L76294 72986
L76350 72986
" />
<path d="M76800 73380
L76800 73070
L76772 73014
L76716 72986
L76603 72986
L76547 73014
" />
<path d="M76800 73352
L76744 73380
L76603 73380
L76547 73352
L76519 73295
L76519 73239
L76547 73183
L76603 73155
L76744 73155
L76800 73127
" />
<path d="M77081 72986
L77081 73380
" />
<path d="M77081 73042
L77109 73014
L77166 72986
L77250 72986
L77306 73014
L77334 73070
L77334 73380
" />
<path d="M77588 73352
L77644 73380
L77756 73380
L77813 73352
L77841 73295
L77841 73267
L77813 73211
L77756 73183
L77672 73183
L77616 73155
L77588 73099
L77588 73070
L77616 73014
L77672 72986
L77756 72986
L77813 73014
" />
<path d="M78094 73380
L78094 72986
" />
<path d="M78094 72789
L78066 72817
L78094 72845
L78122 72817
L78094 72789
L78094 72845
" />
<path d="M78347 73352
L78403 73380
L78516 73380
L78572 73352
L78600 73295
L78600 73267
L78572 73211
L78516 73183
L78431 73183
L78375 73155
L78347 73099
L78347 73070
L78375 73014
L78431 72986
L78516 72986
L78572 73014
" />
<path d="M78769 72986
L78994 72986
" />
<path d="M78853 72789
L78853 73295
L78881 73352
L78937 73380
L78994 73380
" />
<path d="M79275 73380
L79219 73352
L79190 73323
L79162 73267
L79162 73099
L79190 73042
L79219 73014
L79275 72986
L79359 72986
L79415 73014
L79444 73042
L79472 73099
L79472 73267
L79444 73323
L79415 73352
L79359 73380
L79275 73380
" />
<path d="M79725 73380
L79725 72986
" />
<path d="M79725 73099
L79753 73042
L79781 73014
L79837 72986
L79894 72986
" />
<path d="M79950 73436
L80400 73436
" />
<path d="M80512 73211
L80793 73211
" />
<path d="M80456 73380
L80653 72789
L80850 73380
" />
<path d="M81046 73380
L81046 72986
" />
<path d="M81046 73042
L81075 73014
L81131 72986
L81215 72986
L81271 73014
L81300 73070
L81300 73380
" />
<path d="M81300 73070
L81328 73014
L81384 72986
L81468 72986
L81525 73014
L81553 73070
L81553 73380
" />
<path d="M81834 72986
L81834 73577
" />
<path d="M81834 73014
L81890 72986
L82003 72986
L82059 73014
L82087 73042
L82115 73099
L82115 73267
L82087 73323
L82059 73352
L82003 73380
L81890 73380
L81834 73352
" />
<path d="M82368 73323
L82396 73352
L82368 73380
L82340 73352
L82368 73323
L82368 73380
" />
<path d="M82649 73380
L82649 72789
" />
<path d="M82706 73155
L82874 73380
" />
<path d="M82874 72986
L82649 73211
" />
<path d="M83127 73380
L83127 72986
" />
<path d="M83127 72789
L83099 72817
L83127 72845
L83156 72817
L83127 72789
L83127 72845
" />
<path d="M83662 73352
L83606 73380
L83493 73380
L83437 73352
L83409 73323
L83381 73267
L83381 73099
L83409 73042
L83437 73014
L83493 72986
L83606 72986
L83662 73014
" />
<path d="M84168 73380
L84168 73070
L84140 73014
L84084 72986
L83971 72986
L83915 73014
" />
<path d="M84168 73352
L84112 73380
L83971 73380
L83915 73352
L83887 73295
L83887 73239
L83915 73183
L83971 73155
L84112 73155
L84168 73127
" />
<path d="M84702 73380
L84702 72789
" />
<path d="M84702 73352
L84646 73380
L84534 73380
L84477 73352
L84449 73323
L84421 73267
L84421 73099
L84449 73042
L84477 73014
L84534 72986
L84646 72986
L84702 73014
" />
<path d="M84843 73436
L85293 73436
" />
<path d="M85433 72986
L85433 73577
" />
<path d="M85433 73014
L85490 72986
L85602 72986
L85658 73014
L85687 73042
L85715 73099
L85715 73267
L85687 73323
L85658 73352
L85602 73380
L85490 73380
L85433 73352
" />
<path d="M86221 73352
L86165 73380
L86052 73380
L85996 73352
L85968 73323
L85940 73267
L85940 73099
L85968 73042
L85996 73014
L86052 72986
L86165 72986
L86221 73014
" />
<path d="M86474 73380
L86474 72789
" />
<path d="M86474 73014
L86530 72986
L86643 72986
L86699 73014
L86727 73042
L86755 73099
L86755 73267
L86727 73323
L86699 73352
L86643 73380
L86530 73380
L86474 73352
" />
</g>
<g style="fill:#000000; fill-opacity:0.0; 
stroke:#000000; stroke-width:39.3701; stroke-opacity:1; 
stroke-linecap:round; stroke-linejoin:round;">
</g>
<g style="fill:#000000; fill-opacity:0.0; 
stroke:#000000; stroke-width:59.0551; stroke-opacity:1; 
stroke-linecap:round; stroke-linejoin:round;">
<path d="M69685 71459
L112205 71459
" />
</g>
<g style="fill:#000000; fill-opacity:0.0; 
stroke:#000000; stroke-width:39.3701; stroke-opacity:1; 
stroke-linecap:round; stroke-linejoin:round;">
</g>
<g style="fill:#000000; fill-opacity:0.0; 
stroke:#000000; stroke-width:59.0551; stroke-opacity:1; 
stroke-linecap:round; stroke-linejoin:round;">
<path d="M70192 72289
L70276 72317
L70417 72317
L70473 72289
L70501 72260
L70529 72204
L70529 72148
L70501 72092
L70473 72064
L70417 72036
L70304 72007
L70248 71979
L70220 71951
L70192 71895
L70192 71839
L70220 71782
L70248 71754
L70304 71726
L70445 71726
L70529 71754
" />
<path d="M70782 72317
L70782 71726
" />
<path d="M71035 72317
L71035 72007
L71007 71951
L70951 71923
L70867 71923
L70810 71951
L70782 71979
" />
<path d="M71541 72289
L71485 72317
L71373 72317
L71316 72289
L71288 72232
L71288 72007
L71316 71951
L71373 71923
L71485 71923
L71541 71951
L71570 72007
L71570 72064
L71288 72120
" />
<path d="M72048 72289
L71991 72317
L71879 72317
L71823 72289
L71795 72232
L71795 72007
L71823 71951
L71879 71923
L71991 71923
L72048 71951
L72076 72007
L72076 72064
L71795 72120
" />
<path d="M72244 71923
L72469 71923
" />
<path d="M72329 71726
L72329 72232
L72357 72289
L72413 72317
L72469 72317
" />
<path d="M72666 72260
L72694 72289
L72666 72317
L72638 72289
L72666 72260
L72666 72317
" />
<path d="M72666 71951
L72694 71979
L72666 72007
L72638 71979
L72666 71951
L72666 72007
" />
</g>
<g style="fill:#000000; fill-opacity:0.0; 
stroke:#000000; stroke-width:39.3701; stroke-opacity:1; 
stroke-linecap:round; stroke-linejoin:round;">
</g>
<g style="fill:#000000; fill-opacity:0.0; 
stroke:#000000; stroke-width:118.11; stroke-opacity:1; 
stroke-linecap:round; stroke-linejoin:round;">
<path d="M70220 71136
L70220 70545
L70417 70967
L70613 70545
L70613 71136
" />
<path d="M71148 70742
L71148 71136
" />
<path d="M70895 70742
L70895 71051
L70923 71108
L70979 71136
L71063 71136
L71120 71108
L71148 71079
" />
<path d="M71401 71108
L71457 71136
L71570 71136
L71626 71108
L71654 71051
L71654 71023
L71626 70967
L71570 70939
L71485 70939
L71429 70911
L71401 70854
L71401 70826
L71429 70770
L71485 70742
L71570 70742
L71626 70770
" />
<path d="M71823 70742
L72048 70742
" />
<path d="M71907 70545
L71907 71051
L71935 71108
L71991 71136
L72048 71136
" />
<path d="M72498 71136
L72498 70826
L72469 70770
L72413 70742
L72301 70742
L72244 70770
" />
<path d="M72498 71108
L72441 71136
L72301 71136
L72244 71108
L72216 71051
L72216 70995
L72244 70939
L72301 70911
L72441 70911
L72498 70883
" />
<path d="M72694 70742
L72919 70742
" />
<path d="M72779 71136
L72779 70629
L72807 70573
L72863 70545
L72919 70545
" />
<path d="M73369 71136
L73369 70826
L73341 70770
L73285 70742
L73172 70742
L73116 70770
" />
<path d="M73369 71108
L73313 71136
L73172 71136
L73116 71108
L73088 71051
L73088 70995
L73116 70939
L73172 70911
L73313 70911
L73369 70883
" />
<path d="M74213 70854
L74213 71136
" />
<path d="M74016 70545
L74213 70854
L74410 70545
" />
<path d="M74607 71136
L74607 70545
" />
<path d="M75169 71136
L74888 71136
L74888 70545
" />
<path d="M75366 71136
L75366 70545
L75507 70545
L75591 70573
L75647 70629
L75675 70686
L75703 70798
L75703 70883
L75675 70995
L75647 71051
L75591 71108
L75507 71136
L75366 71136
" />
<path d="M75956 71136
L75956 70545
" />
<path d="M76181 70545
L76575 70545
L76181 71136
L76575 71136
" />
</g>
<g style="fill:#000000; fill-opacity:0.0; 
stroke:#000000; stroke-width:39.3701; stroke-opacity:1; 
stroke-linecap:round; stroke-linejoin:round;">
</g>
<g style="fill:#000000; fill-opacity:0.0; 
stroke:#000000; stroke-width:59.0551; stroke-opacity:1; 
stroke-linecap:round; stroke-linejoin:round;">
<path d="M77559 75396
L77559 76577
" />
</g>
<g style="fill:#000000; fill-opacity:0.0; 
stroke:#000000; stroke-width:39.3701; stroke-opacity:1; 
stroke-linecap:round; stroke-linejoin:round;">
</g>
<g style="fill:#000000; fill-opacity:0.0; 
stroke:#000000; stroke-width:59.0551; stroke-opacity:1; 
stroke-linecap:round; stroke-linejoin:round;">
<path d="M102756 75396
L102756 77955
" />
</g>
<g style="fill:#C2C200; fill-opacity:0.0; 
stroke:#C2C200; stroke-width:59.0551; stroke-opacity:1; 
stroke-linecap:round; stroke-linejoin:round;">
<path d="M47708 50118
L47762 28314
" />
<path d="M62074 56330
L55098 56332
" />
<path d="M69116 29074
L69082 50108
" />
<path d="M47716 50124
L55096 56332
" />
<path d="M62076 56324
L69082 50114
" />
<path d="M69114 28316
L69110 29108
" />
<path d="M69062 28314
L69114 28316
" />
<path d="M47762 28314
L69062 28314
" />
<path d="M52072 36607
L52053 36626
L51997 36645
L51959 36645
L51903 36626
L51865 36588
L51847 36551
L51828 36476
L51828 36420
L51847 36345
L51865 36307
L51903 36270
L51959 36251
L51997 36251
L52053 36270
L52072 36288
" />
<path d="M52446 36645
L52221 36645
" />
<path d="M52334 36645
L52334 36251
L52296 36307
L52259 36345
L52221 36363
" />
<path d="M65452 36371
L65434 36390
L65377 36409
L65340 36409
L65284 36390
L65246 36352
L65227 36315
L65209 36240
L65209 36184
L65227 36109
L65246 36071
L65284 36034
L65340 36015
L65377 36015
L65434 36034
L65452 36052
" />
<path d="M65602 36052
L65621 36034
L65658 36015
L65752 36015
L65790 36034
L65808 36052
L65827 36090
L65827 36127
L65808 36184
L65583 36409
L65827 36409
" />
<path d="M58557 54974
L58539 54992
L58482 55011
L58445 55011
L58389 54992
L58351 54955
L58332 54917
L58314 54842
L58314 54786
L58332 54711
L58351 54674
L58389 54636
L58445 54617
L58482 54617
L58539 54636
L58557 54655
" />
<path d="M58689 54617
L58932 54617
L58801 54767
L58857 54767
L58895 54786
L58914 54805
L58932 54842
L58932 54936
L58914 54974
L58895 54992
L58857 55011
L58745 55011
L58707 54992
L58689 54974
" />
<path d="M51093 43074
L51093 42680
L51243 42680
L51280 42699
L51299 42717
L51318 42755
L51318 42811
L51299 42849
L51280 42867
L51243 42886
L51093 42886
" />
<path d="M51693 43074
L51468 43074
" />
<path d="M51580 43074
L51580 42680
L51543 42736
L51505 42774
L51468 42792
" />
<path d="M64815 43036
L64815 42642
L64965 42642
L65002 42661
L65021 42679
L65040 42717
L65040 42773
L65021 42811
L65002 42829
L64965 42848
L64815 42848
" />
<path d="M65190 42679
L65209 42661
L65246 42642
L65340 42642
L65377 42661
L65396 42679
L65415 42717
L65415 42754
L65396 42811
L65171 43036
L65415 43036
" />
<path d="M58724 34163
L58687 34144
L58649 34106
L58593 34050
L58555 34031
L58518 34031
" />
<path d="M58537 34125
L58499 34106
L58462 34069
L58443 33994
L58443 33863
L58462 33788
L58499 33750
L58537 33731
L58612 33731
L58649 33750
L58687 33788
L58705 33863
L58705 33994
L58687 34069
L58649 34106
L58612 34125
L58537 34125
" />
<path d="M59080 34125
L58855 34125
" />
<path d="M58968 34125
L58968 33731
L58930 33788
L58893 33825
L58855 33844
" />
<path d="M58434 41118
L58303 40931
" />
<path d="M58209 41118
L58209 40724
L58359 40724
L58396 40743
L58415 40762
L58434 40799
L58434 40856
L58415 40893
L58396 40912
L58359 40931
L58209 40931
" />
<path d="M58809 41118
L58584 41118
" />
<path d="M58696 41118
L58696 40724
L58659 40781
L58621 40818
L58584 40837
" />
<path d="M58584 34746
L58453 34559
" />
<path d="M58359 34746
L58359 34352
L58509 34352
L58546 34371
L58565 34390
L58584 34427
L58584 34484
L58565 34521
L58546 34540
L58509 34559
L58359 34559
" />
<path d="M58734 34390
L58753 34371
L58790 34352
L58884 34352
L58921 34371
L58940 34390
L58959 34427
L58959 34465
L58940 34521
L58715 34746
L58959 34746
" />
<path d="M58476 40859
L58345 40672
" />
<path d="M58251 40859
L58251 40465
L58401 40465
L58438 40484
L58457 40503
L58476 40540
L58476 40597
L58457 40634
L58438 40653
L58401 40672
L58251 40672
" />
<path d="M58607 40465
L58851 40465
L58720 40615
L58776 40615
L58813 40634
L58832 40653
L58851 40690
L58851 40784
L58832 40822
L58813 40840
L58776 40859
L58663 40859
L58626 40840
L58607 40822
" />
<path d="M58506 36852
L58375 36665
" />
<path d="M58281 36852
L58281 36458
L58431 36458
L58468 36477
L58487 36496
L58506 36533
L58506 36590
L58487 36627
L58468 36646
L58431 36665
L58281 36665
" />
<path d="M58843 36590
L58843 36852
" />
<path d="M58750 36440
L58656 36721
L58900 36721
" />
</g>
<g style="fill:#008484; fill-opacity:0.0; 
stroke:#008484; stroke-width:59.0551; stroke-opacity:1; 
stroke-linecap:round; stroke-linejoin:round;">
</g>
<g style="fill:#008484; fill-opacity:0.0; 
stroke:#008484; stroke-width:47.2441; stroke-opacity:1; 
stroke-linecap:round; stroke-linejoin:round;">
<path d="M52137 36069
L52137 29730
" />
<path d="M52121 36069
L52121 29730
" />
<path d="M52106 36069
L52106 29730
" />
<path d="M52090 36069
L52090 29730
" />
<path d="M52074 36068
L52074 29731
" />
<path d="M52058 36068
L52058 29731
" />
<path d="M52043 36068
L52043 29731
" />
<path d="M52027 36067
L52027 29732
" />
<path d="M52011 36066
L52011 29733
" />
<path d="M51995 36066
L51995 29733
" />
<path d="M51980 36065
L51980 29734
" />
<path d="M51964 36064
L51964 29735
" />
<path d="M51948 36063
L51948 29736
" />
<path d="M51932 36062
L51932 29737
" />
<path d="M51917 36061
L51917 29738
" />
<path d="M51901 36060
L51901 29739
" />
<path d="M51885 36059
L51885 29740
" />
<path d="M51869 36058
L51869 29741
" />
<path d="M51853 36056
L51853 29743
" />
<path d="M51838 36055
L51838 29744
" />
<path d="M51822 36053
L51822 29746
" />
<path d="M51806 36052
L51806 29747
" />
<path d="M51790 36050
L51790 29749
" />
<path d="M51775 36048
L51775 29751
" />
<path d="M51759 36046
L51759 29753
" />
<path d="M51743 36044
L51743 29755
" />
<path d="M51727 36042
L51727 29757
" />
<path d="M51712 36040
L51712 29759
" />
<path d="M51696 36038
L51696 29761
" />
<path d="M51680 36036
L51680 29763
" />
<path d="M51664 36034
L51664 29765
" />
<path d="M51649 36031
L51649 29768
" />
<path d="M51633 36029
L51633 29770
" />
<path d="M51617 36026
L51617 29773
" />
<path d="M51601 36024
L51601 29775
" />
<path d="M51586 36021
L51586 29778
" />
<path d="M51570 36018
L51570 29781
" />
<path d="M51554 36015
L51554 29784
" />
<path d="M51538 36012
L51538 29787
" />
<path d="M51523 36009
L51523 29790
" />
<path d="M51507 36006
L51507 29793
" />
<path d="M51491 36003
L51491 29796
" />
<path d="M51475 36000
L51475 29800
" />
<path d="M51460 35996
L51460 29803
" />
<path d="M51444 35993
L51444 29806
" />
<path d="M51428 35989
L51428 29810
" />
<path d="M51412 35985
L51412 29814
" />
<path d="M51397 35982
L51397 29817
" />
<path d="M51381 35978
L51381 29821
" />
<path d="M51365 35974
L51365 29825
" />
<path d="M51349 35970
L51349 29829
" />
<path d="M51334 35966
L51334 29833
" />
<path d="M51318 35962
L51318 29837
" />
<path d="M51302 35958
L51302 29841
" />
<path d="M51286 35953
L51286 29846
" />
<path d="M51271 35949
L51271 29850
" />
<path d="M51255 35944
L51255 29855
" />
<path d="M51239 35940
L51239 29859
" />
<path d="M51223 35935
L51223 29864
" />
<path d="M51208 35931
L51208 29868
" />
<path d="M51192 35925
L51192 33443
" />
<path d="M51192 32356
L51192 29874
" />
<path d="M51176 35921
L51176 33443
" />
<path d="M51176 32356
L51176 29878
" />
<path d="M51160 35916
L51160 33443
" />
<path d="M51160 32356
L51160 29883
" />
<path d="M51145 35911
L51145 33443
" />
<path d="M51145 32356
L51145 29888
" />
<path d="M51129 35905
L51129 33443
" />
<path d="M51129 32356
L51129 29894
" />
<path d="M51113 35900
L51113 33443
" />
<path d="M51113 32356
L51113 29899
" />
<path d="M51097 35895
L51097 33443
" />
<path d="M51097 32356
L51097 29904
" />
<path d="M51082 35889
L51082 33443
" />
<path d="M51082 32356
L51082 29910
" />
<path d="M51066 35884
L51066 33443
" />
<path d="M51066 32356
L51066 29915
" />
<path d="M51050 35878
L51050 33443
" />
<path d="M51050 32356
L51050 29921
" />
<path d="M51034 35872
L51034 33443
" />
<path d="M51034 32356
L51034 29927
" />
<path d="M51019 35866
L51019 33443
" />
<path d="M51019 32356
L51019 29933
" />
<path d="M51003 35861
L51003 33443
" />
<path d="M51003 32356
L51003 29938
" />
<path d="M50987 35854
L50987 33443
" />
<path d="M50987 32356
L50987 29945
" />
<path d="M50971 35848
L50971 33443
" />
<path d="M50971 32356
L50971 29951
" />
<path d="M50956 35842
L50956 33443
" />
<path d="M50956 32356
L50956 29957
" />
<path d="M50940 35836
L50940 33443
" />
<path d="M50940 32356
L50940 29963
" />
<path d="M50924 35829
L50924 33443
" />
<path d="M50924 32356
L50924 29970
" />
<path d="M50908 35823
L50908 33443
" />
<path d="M50908 32356
L50908 29976
" />
<path d="M50893 35816
L50893 33443
" />
<path d="M50893 32356
L50893 29983
" />
<path d="M50877 35809
L50877 33443
" />
<path d="M50877 32356
L50877 29990
" />
<path d="M50861 35802
L50861 33443
" />
<path d="M50861 32356
L50861 29997
" />
<path d="M50845 35796
L50845 33443
" />
<path d="M50845 32356
L50845 30003
" />
<path d="M50830 35788
L50830 33443
" />
<path d="M50830 32356
L50830 30011
" />
<path d="M50814 35781
L50814 33443
" />
<path d="M50814 32356
L50814 30018
" />
<path d="M50798 35774
L50798 33443
" />
<path d="M50798 32356
L50798 30025
" />
<path d="M50782 35767
L50782 33443
" />
<path d="M50782 32356
L50782 30032
" />
<path d="M50767 35759
L50767 33443
" />
<path d="M50767 32356
L50767 30040
" />
<path d="M50751 35752
L50751 33443
" />
<path d="M50751 32356
L50751 30047
" />
<path d="M50735 35744
L50735 33443
" />
<path d="M50735 32356
L50735 30055
" />
<path d="M50719 35736
L50719 33443
" />
<path d="M50719 32356
L50719 30063
" />
<path d="M50704 35728
L50704 33443
" />
<path d="M50704 32356
L50704 30071
" />
<path d="M50688 35720
L50688 33443
" />
<path d="M50688 32356
L50688 30079
" />
<path d="M50672 35712
L50672 33443
" />
<path d="M50672 32356
L50672 30087
" />
<path d="M50656 35704
L50656 33443
" />
<path d="M50656 32356
L50656 30095
" />
<path d="M50641 35696
L50641 33443
" />
<path d="M50641 32356
L50641 30103
" />
<path d="M50625 35687
L50625 33443
" />
<path d="M50625 32356
L50625 30112
" />
<path d="M50609 35679
L50609 33443
" />
<path d="M50609 32356
L50609 30120
" />
<path d="M50593 35670
L50593 33443
" />
<path d="M50593 32356
L50593 30129
" />
<path d="M50578 35661
L50578 33443
" />
<path d="M50578 32356
L50578 30138
" />
<path d="M50562 35652
L50562 33443
" />
<path d="M50562 32356
L50562 30147
" />
<path d="M50546 35644
L50546 33443
" />
<path d="M50546 32356
L50546 30155
" />
<path d="M50530 35634
L50530 33443
" />
<path d="M50530 32356
L50530 30165
" />
<path d="M50515 35625
L50515 33443
" />
<path d="M50515 32356
L50515 30174
" />
<path d="M50499 35616
L50499 33443
" />
<path d="M50499 32356
L50499 30183
" />
<path d="M50483 35606
L50483 33443
" />
<path d="M50483 32356
L50483 30193
" />
<path d="M50467 35596
L50467 33443
" />
<path d="M50467 32356
L50467 30203
" />
<path d="M50452 35587
L50452 33443
" />
<path d="M50452 32356
L50452 30212
" />
<path d="M50436 35577
L50436 33443
" />
<path d="M50436 32356
L50436 30222
" />
<path d="M50420 35567
L50420 33443
" />
<path d="M50420 32356
L50420 30232
" />
<path d="M50404 35557
L50404 33443
" />
<path d="M50404 32356
L50404 30242
" />
<path d="M50389 35546
L50389 33443
" />
<path d="M50389 32356
L50389 30253
" />
<path d="M50373 35536
L50373 33443
" />
<path d="M50373 32356
L50373 30263
" />
<path d="M50357 35525
L50357 33443
" />
<path d="M50357 32356
L50357 30274
" />
<path d="M50341 35515
L50341 33443
" />
<path d="M50341 32356
L50341 30284
" />
<path d="M50326 35504
L50326 33443
" />
<path d="M50326 32356
L50326 30295
" />
<path d="M50310 35493
L50310 33443
" />
<path d="M50310 32356
L50310 30306
" />
<path d="M50294 35482
L50294 33443
" />
<path d="M50294 32356
L50294 30317
" />
<path d="M50278 35471
L50278 33443
" />
<path d="M50278 32356
L50278 30328
" />
<path d="M50263 35459
L50263 33443
" />
<path d="M50263 32356
L50263 30340
" />
<path d="M50247 35448
L50247 33443
" />
<path d="M50247 32356
L50247 30351
" />
<path d="M50231 35436
L50231 33443
" />
<path d="M50231 32356
L50231 30363
" />
<path d="M50215 35424
L50215 33443
" />
<path d="M50215 32356
L50215 30375
" />
<path d="M50200 35412
L50200 33443
" />
<path d="M50200 32356
L50200 30387
" />
<path d="M50184 35400
L50184 33443
" />
<path d="M50184 32356
L50184 30399
" />
<path d="M50168 35388
L50168 33443
" />
<path d="M50168 32356
L50168 30411
" />
<path d="M50152 35375
L50152 33443
" />
<path d="M50152 32356
L50152 30424
" />
<path d="M50137 35363
L50137 33443
" />
<path d="M50137 32356
L50137 30436
" />
<path d="M50121 35350
L50121 33443
" />
<path d="M50121 32356
L50121 30449
" />
<path d="M50105 35337
L50105 30462
" />
<path d="M50089 35324
L50089 30475
" />
<path d="M50074 35311
L50074 30488
" />
<path d="M50058 35297
L50058 30502
" />
<path d="M50042 35283
L50042 30516
" />
<path d="M50026 35270
L50026 30529
" />
<path d="M50011 35255
L50011 30544
" />
<path d="M49995 35241
L49995 30558
" />
<path d="M49979 35227
L49979 30572
" />
<path d="M49964 35212
L49964 30587
" />
<path d="M49948 35198
L49948 30601
" />
<path d="M49932 35183
L49932 30616
" />
<path d="M49916 35167
L49916 30632
" />
<path d="M49901 35152
L49901 30647
" />
<path d="M49885 35136
L49885 30663
" />
<path d="M49869 35120
L49869 30679
" />
<path d="M49853 35104
L49853 30695
" />
<path d="M49838 35088
L49838 30711
" />
<path d="M49822 35072
L49822 30727
" />
<path d="M49806 35055
L49806 30744
" />
<path d="M49790 35038
L49790 30761
" />
<path d="M49775 35020
L49775 30779
" />
<path d="M49759 35003
L49759 30796
" />
<path d="M49743 34985
L49743 30814
" />
<path d="M49727 34967
L49727 30832
" />
<path d="M49712 34949
L49712 30850
" />
<path d="M49696 34930
L49696 30869
" />
<path d="M49680 34911
L49680 30888
" />
<path d="M49664 34892
L49664 30907
" />
<path d="M49649 34872
L49649 30927
" />
<path d="M49633 34852
L49633 30947
" />
<path d="M49617 34832
L49617 30967
" />
<path d="M49601 34812
L49601 30987
" />
<path d="M49586 34791
L49586 31008
" />
<path d="M49570 34770
L49570 31029
" />
<path d="M49554 34748
L49554 31051
" />
<path d="M49538 34726
L49538 31073
" />
<path d="M49523 34703
L49523 31096
" />
<path d="M49507 34681
L49507 31118
" />
<path d="M49491 34657
L49491 31142
" />
<path d="M49475 34634
L49475 31165
" />
<path d="M49460 34609
L49460 31190
" />
<path d="M49444 34585
L49444 31214
" />
<path d="M49428 34560
L49428 31239
" />
<path d="M49412 34534
L49412 31265
" />
<path d="M49397 34507
L49397 31292
" />
<path d="M49381 34481
L49381 31318
" />
<path d="M49365 34453
L49365 31346
" />
<path d="M49349 34425
L49349 31374
" />
<path d="M49334 34396
L49334 31403
" />
<path d="M49318 34366
L49318 31433
" />
<path d="M49302 34336
L49302 31463
" />
<path d="M49286 34305
L49286 31494
" />
<path d="M49271 34273
L49271 31526
" />
<path d="M49255 34240
L49255 31559
" />
<path d="M49239 34206
L49239 31593
" />
<path d="M49223 34171
L49223 31628
" />
<path d="M49208 34135
L49208 31664
" />
<path d="M49192 34097
L49192 31702
" />
<path d="M49176 34058
L49176 31741
" />
<path d="M49160 34018
L49160 31781
" />
<path d="M49145 33975
L49145 31824
" />
<path d="M49129 33931
L49129 31868
" />
<path d="M49113 33885
L49113 31914
" />
<path d="M49097 33836
L49097 31963
" />
<path d="M49082 33785
L49082 32014
" />
<path d="M49066 33729
L49066 32070
" />
<path d="M49050 33670
L49050 32129
" />
<path d="M49034 33605
L49034 32194
" />
<path d="M49019 33533
L49019 32266
" />
<path d="M49003 33453
L49003 32346
" />
<path d="M48987 33358
L48987 32441
" />
<path d="M48971 33238
L48971 32561
" />
<path d="M48956 33042
L48956 32757
" />
<path d="M54873 32900
L54165 32900
" />
<path d="M54519 33254
L54519 32545
" />
<circle cx="52137.6" cy="32900" r="3185.04" /> 
<path d="M65518 35833
L65518 29494
" />
<path d="M65502 35833
L65502 29494
" />
<path d="M65486 35833
L65486 29494
" />
<path d="M65471 35833
L65471 29494
" />
<path d="M65455 35832
L65455 29495
" />
<path d="M65439 35832
L65439 29495
" />
<path d="M65423 35832
L65423 29495
" />
<path d="M65408 35831
L65408 29496
" />
<path d="M65392 35830
L65392 29497
" />
<path d="M65376 35830
L65376 29497
" />
<path d="M65360 35829
L65360 29498
" />
<path d="M65345 35828
L65345 29499
" />
<path d="M65329 35827
L65329 29500
" />
<path d="M65313 35826
L65313 29501
" />
<path d="M65297 35825
L65297 29502
" />
<path d="M65282 35824
L65282 29503
" />
<path d="M65266 35823
L65266 29504
" />
<path d="M65250 35822
L65250 29505
" />
<path d="M65234 35820
L65234 29507
" />
<path d="M65218 35819
L65218 29508
" />
<path d="M65203 35817
L65203 29510
" />
<path d="M65187 35816
L65187 29511
" />
<path d="M65171 35814
L65171 29513
" />
<path d="M65155 35812
L65155 29515
" />
<path d="M65140 35810
L65140 29517
" />
<path d="M65124 35808
L65124 29519
" />
<path d="M65108 35806
L65108 29521
" />
<path d="M65092 35804
L65092 29523
" />
<path d="M65077 35802
L65077 29525
" />
<path d="M65061 35800
L65061 29527
" />
<path d="M65045 35798
L65045 29529
" />
<path d="M65029 35795
L65029 29532
" />
<path d="M65014 35793
L65014 29534
" />
<path d="M64998 35790
L64998 29537
" />
<path d="M64982 35788
L64982 29539
" />
<path d="M64966 35785
L64966 29542
" />
<path d="M64951 35782
L64951 29545
" />
<path d="M64935 35779
L64935 29548
" />
<path d="M64919 35776
L64919 29551
" />
<path d="M64903 35773
L64903 29554
" />
<path d="M64888 35770
L64888 29557
" />
<path d="M64872 35767
L64872 29560
" />
<path d="M64856 35764
L64856 29564
" />
<path d="M64840 35760
L64840 29567
" />
<path d="M64825 35757
L64825 29570
" />
<path d="M64809 35753
L64809 29574
" />
<path d="M64793 35749
L64793 29578
" />
<path d="M64777 35746
L64777 29581
" />
<path d="M64762 35742
L64762 29585
" />
<path d="M64746 35738
L64746 29589
" />
<path d="M64730 35734
L64730 29593
" />
<path d="M64714 35730
L64714 29597
" />
<path d="M64699 35726
L64699 29601
" />
<path d="M64683 35722
L64683 29605
" />
<path d="M64667 35717
L64667 29610
" />
<path d="M64651 35713
L64651 29614
" />
<path d="M64636 35708
L64636 29619
" />
<path d="M64620 35704
L64620 29623
" />
<path d="M64604 35699
L64604 29628
" />
<path d="M64588 35695
L64588 29632
" />
<path d="M64573 35689
L64573 33207
" />
<path d="M64573 32120
L64573 29638
" />
<path d="M64557 35685
L64557 33207
" />
<path d="M64557 32120
L64557 29642
" />
<path d="M64541 35680
L64541 33207
" />
<path d="M64541 32120
L64541 29647
" />
<path d="M64525 35675
L64525 33207
" />
<path d="M64525 32120
L64525 29652
" />
<path d="M64510 35669
L64510 33207
" />
<path d="M64510 32120
L64510 29658
" />
<path d="M64494 35664
L64494 33207
" />
<path d="M64494 32120
L64494 29663
" />
<path d="M64478 35659
L64478 33207
" />
<path d="M64478 32120
L64478 29668
" />
<path d="M64462 35653
L64462 33207
" />
<path d="M64462 32120
L64462 29674
" />
<path d="M64447 35648
L64447 33207
" />
<path d="M64447 32120
L64447 29679
" />
<path d="M64431 35642
L64431 33207
" />
<path d="M64431 32120
L64431 29685
" />
<path d="M64415 35636
L64415 33207
" />
<path d="M64415 32120
L64415 29691
" />
<path d="M64399 35630
L64399 33207
" />
<path d="M64399 32120
L64399 29697
" />
<path d="M64384 35625
L64384 33207
" />
<path d="M64384 32120
L64384 29702
" />
<path d="M64368 35618
L64368 33207
" />
<path d="M64368 32120
L64368 29709
" />
<path d="M64352 35612
L64352 33207
" />
<path d="M64352 32120
L64352 29715
" />
<path d="M64336 35606
L64336 33207
" />
<path d="M64336 32120
L64336 29721
" />
<path d="M64321 35600
L64321 33207
" />
<path d="M64321 32120
L64321 29727
" />
<path d="M64305 35593
L64305 33207
" />
<path d="M64305 32120
L64305 29734
" />
<path d="M64289 35587
L64289 33207
" />
<path d="M64289 32120
L64289 29740
" />
<path d="M64273 35580
L64273 33207
" />
<path d="M64273 32120
L64273 29747
" />
<path d="M64258 35573
L64258 33207
" />
<path d="M64258 32120
L64258 29754
" />
<path d="M64242 35566
L64242 33207
" />
<path d="M64242 32120
L64242 29761
" />
<path d="M64226 35560
L64226 33207
" />
<path d="M64226 32120
L64226 29767
" />
<path d="M64210 35552
L64210 33207
" />
<path d="M64210 32120
L64210 29775
" />
<path d="M64195 35545
L64195 33207
" />
<path d="M64195 32120
L64195 29782
" />
<path d="M64179 35538
L64179 33207
" />
<path d="M64179 32120
L64179 29789
" />
<path d="M64163 35531
L64163 33207
" />
<path d="M64163 32120
L64163 29796
" />
<path d="M64147 35523
L64147 33207
" />
<path d="M64147 32120
L64147 29804
" />
<path d="M64132 35516
L64132 33207
" />
<path d="M64132 32120
L64132 29811
" />
<path d="M64116 35508
L64116 33207
" />
<path d="M64116 32120
L64116 29819
" />
<path d="M64100 35500
L64100 33207
" />
<path d="M64100 32120
L64100 29827
" />
<path d="M64084 35492
L64084 33207
" />
<path d="M64084 32120
L64084 29835
" />
<path d="M64069 35484
L64069 33207
" />
<path d="M64069 32120
L64069 29843
" />
<path d="M64053 35476
L64053 33207
" />
<path d="M64053 32120
L64053 29851
" />
<path d="M64037 35468
L64037 33207
" />
<path d="M64037 32120
L64037 29859
" />
<path d="M64021 35460
L64021 33207
" />
<path d="M64021 32120
L64021 29867
" />
<path d="M64006 35451
L64006 33207
" />
<path d="M64006 32120
L64006 29876
" />
<path d="M63990 35443
L63990 33207
" />
<path d="M63990 32120
L63990 29884
" />
<path d="M63974 35434
L63974 33207
" />
<path d="M63974 32120
L63974 29893
" />
<path d="M63958 35425
L63958 33207
" />
<path d="M63958 32120
L63958 29902
" />
<path d="M63943 35416
L63943 33207
" />
<path d="M63943 32120
L63943 29911
" />
<path d="M63927 35408
L63927 33207
" />
<path d="M63927 32120
L63927 29919
" />
<path d="M63911 35398
L63911 33207
" />
<path d="M63911 32120
L63911 29929
" />
<path d="M63895 35389
L63895 33207
" />
<path d="M63895 32120
L63895 29938
" />
<path d="M63880 35380
L63880 33207
" />
<path d="M63880 32120
L63880 29947
" />
<path d="M63864 35370
L63864 33207
" />
<path d="M63864 32120
L63864 29957
" />
<path d="M63848 35360
L63848 33207
" />
<path d="M63848 32120
L63848 29967
" />
<path d="M63832 35351
L63832 33207
" />
<path d="M63832 32120
L63832 29976
" />
<path d="M63817 35341
L63817 33207
" />
<path d="M63817 32120
L63817 29986
" />
<path d="M63801 35331
L63801 33207
" />
<path d="M63801 32120
L63801 29996
" />
<path d="M63785 35321
L63785 33207
" />
<path d="M63785 32120
L63785 30006
" />
<path d="M63769 35310
L63769 33207
" />
<path d="M63769 32120
L63769 30017
" />
<path d="M63754 35300
L63754 33207
" />
<path d="M63754 32120
L63754 30027
" />
<path d="M63738 35289
L63738 33207
" />
<path d="M63738 32120
L63738 30038
" />
<path d="M63722 35279
L63722 33207
" />
<path d="M63722 32120
L63722 30048
" />
<path d="M63706 35268
L63706 33207
" />
<path d="M63706 32120
L63706 30059
" />
<path d="M63691 35257
L63691 33207
" />
<path d="M63691 32120
L63691 30070
" />
<path d="M63675 35246
L63675 33207
" />
<path d="M63675 32120
L63675 30081
" />
<path d="M63659 35235
L63659 33207
" />
<path d="M63659 32120
L63659 30092
" />
<path d="M63643 35223
L63643 33207
" />
<path d="M63643 32120
L63643 30104
" />
<path d="M63628 35212
L63628 33207
" />
<path d="M63628 32120
L63628 30115
" />
<path d="M63612 35200
L63612 33207
" />
<path d="M63612 32120
L63612 30127
" />
<path d="M63596 35188
L63596 33207
" />
<path d="M63596 32120
L63596 30139
" />
<path d="M63580 35176
L63580 33207
" />
<path d="M63580 32120
L63580 30151
" />
<path d="M63565 35164
L63565 33207
" />
<path d="M63565 32120
L63565 30163
" />
<path d="M63549 35152
L63549 33207
" />
<path d="M63549 32120
L63549 30175
" />
<path d="M63533 35139
L63533 33207
" />
<path d="M63533 32120
L63533 30188
" />
<path d="M63517 35127
L63517 33207
" />
<path d="M63517 32120
L63517 30200
" />
<path d="M63502 35114
L63502 33207
" />
<path d="M63502 32120
L63502 30213
" />
<path d="M63486 35101
L63486 30226
" />
<path d="M63470 35088
L63470 30239
" />
<path d="M63454 35075
L63454 30252
" />
<path d="M63439 35061
L63439 30266
" />
<path d="M63423 35047
L63423 30280
" />
<path d="M63407 35034
L63407 30293
" />
<path d="M63392 35019
L63392 30308
" />
<path d="M63376 35005
L63376 30322
" />
<path d="M63360 34991
L63360 30336
" />
<path d="M63344 34976
L63344 30351
" />
<path d="M63329 34962
L63329 30365
" />
<path d="M63313 34947
L63313 30380
" />
<path d="M63297 34931
L63297 30396
" />
<path d="M63281 34916
L63281 30411
" />
<path d="M63266 34900
L63266 30427
" />
<path d="M63250 34884
L63250 30443
" />
<path d="M63234 34868
L63234 30459
" />
<path d="M63218 34852
L63218 30475
" />
<path d="M63203 34836
L63203 30491
" />
<path d="M63187 34819
L63187 30508
" />
<path d="M63171 34802
L63171 30525
" />
<path d="M63155 34784
L63155 30543
" />
<path d="M63140 34767
L63140 30560
" />
<path d="M63124 34749
L63124 30578
" />
<path d="M63108 34731
L63108 30596
" />
<path d="M63092 34713
L63092 30614
" />
<path d="M63077 34694
L63077 30633
" />
<path d="M63061 34675
L63061 30652
" />
<path d="M63045 34656
L63045 30671
" />
<path d="M63029 34636
L63029 30691
" />
<path d="M63014 34616
L63014 30711
" />
<path d="M62998 34596
L62998 30731
" />
<path d="M62982 34576
L62982 30751
" />
<path d="M62966 34555
L62966 30772
" />
<path d="M62951 34534
L62951 30793
" />
<path d="M62935 34512
L62935 30815
" />
<path d="M62919 34490
L62919 30837
" />
<path d="M62903 34467
L62903 30860
" />
<path d="M62888 34445
L62888 30882
" />
<path d="M62872 34421
L62872 30906
" />
<path d="M62856 34398
L62856 30929
" />
<path d="M62840 34373
L62840 30954
" />
<path d="M62825 34349
L62825 30978
" />
<path d="M62809 34324
L62809 31003
" />
<path d="M62793 34298
L62793 31029
" />
<path d="M62777 34271
L62777 31056
" />
<path d="M62762 34245
L62762 31082
" />
<path d="M62746 34217
L62746 31110
" />
<path d="M62730 34189
L62730 31138
" />
<path d="M62714 34160
L62714 31167
" />
<path d="M62699 34130
L62699 31197
" />
<path d="M62683 34100
L62683 31227
" />
<path d="M62667 34069
L62667 31258
" />
<path d="M62651 34037
L62651 31290
" />
<path d="M62636 34004
L62636 31323
" />
<path d="M62620 33970
L62620 31357
" />
<path d="M62604 33935
L62604 31392
" />
<path d="M62588 33899
L62588 31428
" />
<path d="M62573 33861
L62573 31466
" />
<path d="M62557 33822
L62557 31505
" />
<path d="M62541 33782
L62541 31545
" />
<path d="M62525 33739
L62525 31588
" />
<path d="M62510 33695
L62510 31632
" />
<path d="M62494 33649
L62494 31678
" />
<path d="M62478 33600
L62478 31727
" />
<path d="M62462 33549
L62462 31778
" />
<path d="M62447 33493
L62447 31834
" />
<path d="M62431 33434
L62431 31893
" />
<path d="M62415 33369
L62415 31958
" />
<path d="M62399 33297
L62399 32030
" />
<path d="M62384 33217
L62384 32110
" />
<path d="M62368 33122
L62368 32205
" />
<path d="M62352 33002
L62352 32325
" />
<path d="M62336 32806
L62336 32521
" />
<path d="M68254 32664
L67545 32664
" />
<path d="M67900 33018
L67900 32309
" />
<circle cx="65518.4" cy="32664" r="3185.04" /> 
<path d="M58623 54435
L58623 44160
" />
<path d="M58607 54435
L58607 44160
" />
<path d="M58592 54435
L58592 44160
" />
<path d="M58576 54435
L58576 44160
" />
<path d="M58560 54435
L58560 44160
" />
<path d="M58544 54435
L58544 44160
" />
<path d="M58529 54435
L58529 44160
" />
<path d="M58513 54435
L58513 44160
" />
<path d="M58497 54434
L58497 44161
" />
<path d="M58481 54434
L58481 44161
" />
<path d="M58466 54433
L58466 44162
" />
<path d="M58450 54433
L58450 44162
" />
<path d="M58434 54432
L58434 44163
" />
<path d="M58418 54431
L58418 44164
" />
<path d="M58403 54431
L58403 44164
" />
<path d="M58387 54430
L58387 44165
" />
<path d="M58371 54429
L58371 44166
" />
<path d="M58355 54429
L58355 44166
" />
<path d="M58339 54428
L58339 44167
" />
<path d="M58323 54427
L58323 44168
" />
<path d="M58308 54426
L58308 44169
" />
<path d="M58292 54425
L58292 44170
" />
<path d="M58276 54424
L58276 44171
" />
<path d="M58260 54423
L58260 44172
" />
<path d="M58245 54422
L58245 44173
" />
<path d="M58229 54420
L58229 44175
" />
<path d="M58213 54419
L58213 44176
" />
<path d="M58197 54418
L58197 44177
" />
<path d="M58182 54416
L58182 44179
" />
<path d="M58166 54415
L58166 44180
" />
<path d="M58150 54414
L58150 44181
" />
<path d="M58134 54412
L58134 44183
" />
<path d="M58119 54411
L58119 44184
" />
<path d="M58103 54409
L58103 44186
" />
<path d="M58087 54408
L58087 44187
" />
<path d="M58071 54406
L58071 44189
" />
<path d="M58056 54404
L58056 44191
" />
<path d="M58040 54403
L58040 44192
" />
<path d="M58024 54401
L58024 44194
" />
<path d="M58008 54399
L58008 44196
" />
<path d="M57993 54397
L57993 44198
" />
<path d="M57977 54395
L57977 44200
" />
<path d="M57961 54393
L57961 44202
" />
<path d="M57945 54391
L57945 44204
" />
<path d="M57930 54389
L57930 44206
" />
<path d="M57914 54386
L57914 44209
" />
<path d="M57898 54385
L57898 44210
" />
<path d="M57882 54382
L57882 44213
" />
<path d="M57867 54380
L57867 44215
" />
<path d="M57851 54377
L57851 44218
" />
<path d="M57835 54375
L57835 44220
" />
<path d="M57819 54373
L57819 44222
" />
<path d="M57804 54370
L57804 44225
" />
<path d="M57788 54368
L57788 44227
" />
<path d="M57772 54365
L57772 44230
" />
<path d="M57756 54362
L57756 44233
" />
<path d="M57741 54359
L57741 44236
" />
<path d="M57725 54357
L57725 44238
" />
<path d="M57709 54354
L57709 44241
" />
<path d="M57693 54351
L57693 44244
" />
<path d="M57678 54348
L57678 44247
" />
<path d="M57662 54345
L57662 44250
" />
<path d="M57646 54342
L57646 44253
" />
<path d="M57630 54339
L57630 44256
" />
<path d="M57615 54336
L57615 44259
" />
<path d="M57599 54333
L57599 44262
" />
<path d="M57583 54330
L57583 44265
" />
<path d="M57567 54326
L57567 44269
" />
<path d="M57552 54323
L57552 44272
" />
<path d="M57536 54320
L57536 44275
" />
<path d="M57520 54316
L57520 44279
" />
<path d="M57504 54313
L57504 50156
" />
<path d="M57504 48439
L57504 44282
" />
<path d="M57489 54309
L57489 50156
" />
<path d="M57489 48439
L57489 44286
" />
<path d="M57473 54306
L57473 50156
" />
<path d="M57473 48439
L57473 44289
" />
<path d="M57457 54302
L57457 50156
" />
<path d="M57457 48439
L57457 44293
" />
<path d="M57442 54298
L57442 50156
" />
<path d="M57442 48439
L57442 44297
" />
<path d="M57426 54295
L57426 50156
" />
<path d="M57426 48439
L57426 44300
" />
<path d="M57410 54291
L57410 50156
" />
<path d="M57410 48439
L57410 44304
" />
<path d="M57394 54287
L57394 50156
" />
<path d="M57394 48439
L57394 44308
" />
<path d="M57379 54283
L57379 50156
" />
<path d="M57379 48439
L57379 44312
" />
<path d="M57363 54279
L57363 50156
" />
<path d="M57363 48439
L57363 44316
" />
<path d="M57347 54275
L57347 50156
" />
<path d="M57347 48439
L57347 44320
" />
<path d="M57331 54271
L57331 50156
" />
<path d="M57331 48439
L57331 44324
" />
<path d="M57316 54267
L57316 50156
" />
<path d="M57316 48439
L57316 44328
" />
<path d="M57300 54263
L57300 50156
" />
<path d="M57300 48439
L57300 44332
" />
<path d="M57284 54259
L57284 50156
" />
<path d="M57284 48439
L57284 44336
" />
<path d="M57268 54254
L57268 50156
" />
<path d="M57268 48439
L57268 44341
" />
<path d="M57253 54250
L57253 50156
" />
<path d="M57253 48439
L57253 44345
" />
<path d="M57237 54246
L57237 50156
" />
<path d="M57237 48439
L57237 44349
" />
<path d="M57221 54241
L57221 50156
" />
<path d="M57221 48439
L57221 44354
" />
<path d="M57205 54237
L57205 50156
" />
<path d="M57205 48439
L57205 44358
" />
<path d="M57190 54232
L57190 50156
" />
<path d="M57190 48439
L57190 44363
" />
<path d="M57174 54228
L57174 50156
" />
<path d="M57174 48439
L57174 44367
" />
<path d="M57158 54223
L57158 50156
" />
<path d="M57158 48439
L57158 44372
" />
<path d="M57142 54218
L57142 50156
" />
<path d="M57142 48439
L57142 44377
" />
<path d="M57127 54214
L57127 50156
" />
<path d="M57127 48439
L57127 44381
" />
<path d="M57111 54209
L57111 50156
" />
<path d="M57111 48439
L57111 44386
" />
<path d="M57095 54204
L57095 50156
" />
<path d="M57095 48439
L57095 44391
" />
<path d="M57079 54199
L57079 50156
" />
<path d="M57079 48439
L57079 44396
" />
<path d="M57064 54194
L57064 50156
" />
<path d="M57064 48439
L57064 44401
" />
<path d="M57048 54189
L57048 50156
" />
<path d="M57048 48439
L57048 44406
" />
<path d="M57032 54184
L57032 50156
" />
<path d="M57032 48439
L57032 44411
" />
<path d="M57016 54179
L57016 50156
" />
<path d="M57016 48439
L57016 44416
" />
<path d="M57001 54173
L57001 50156
" />
<path d="M57001 48439
L57001 44422
" />
<path d="M56985 54168
L56985 50156
" />
<path d="M56985 48439
L56985 44427
" />
<path d="M56969 54163
L56969 50156
" />
<path d="M56969 48439
L56969 44432
" />
<path d="M56953 54158
L56953 50156
" />
<path d="M56953 48439
L56953 44437
" />
<path d="M56938 54152
L56938 50156
" />
<path d="M56938 48439
L56938 44443
" />
<path d="M56922 54147
L56922 50156
" />
<path d="M56922 48439
L56922 44448
" />
<path d="M56906 54141
L56906 50156
" />
<path d="M56906 48439
L56906 44454
" />
<path d="M56890 54136
L56890 50156
" />
<path d="M56890 48439
L56890 44459
" />
<path d="M56875 54130
L56875 50156
" />
<path d="M56875 48439
L56875 44465
" />
<path d="M56859 54124
L56859 50156
" />
<path d="M56859 48439
L56859 44471
" />
<path d="M56843 54118
L56843 50156
" />
<path d="M56843 48439
L56843 44477
" />
<path d="M56827 54113
L56827 50156
" />
<path d="M56827 48439
L56827 44482
" />
<path d="M56812 54107
L56812 50156
" />
<path d="M56812 48439
L56812 44488
" />
<path d="M56796 54101
L56796 50156
" />
<path d="M56796 48439
L56796 44494
" />
<path d="M56780 54095
L56780 50156
" />
<path d="M56780 48439
L56780 44500
" />
<path d="M56764 54089
L56764 50156
" />
<path d="M56764 48439
L56764 44506
" />
<path d="M56749 54083
L56749 50156
" />
<path d="M56749 48439
L56749 44512
" />
<path d="M56733 54077
L56733 50156
" />
<path d="M56733 48439
L56733 44518
" />
<path d="M56717 54070
L56717 50156
" />
<path d="M56717 48439
L56717 44525
" />
<path d="M56701 54064
L56701 50156
" />
<path d="M56701 48439
L56701 44531
" />
<path d="M56686 54058
L56686 50156
" />
<path d="M56686 48439
L56686 44537
" />
<path d="M56670 54051
L56670 50156
" />
<path d="M56670 48439
L56670 44544
" />
<path d="M56654 54045
L56654 50156
" />
<path d="M56654 48439
L56654 44550
" />
<path d="M56638 54038
L56638 50156
" />
<path d="M56638 48439
L56638 44557
" />
<path d="M56623 54032
L56623 50156
" />
<path d="M56623 48439
L56623 44563
" />
<path d="M56607 54025
L56607 50156
" />
<path d="M56607 48439
L56607 44570
" />
<path d="M56591 54018
L56591 50156
" />
<path d="M56591 48439
L56591 44577
" />
<path d="M56575 54011
L56575 50156
" />
<path d="M56575 48439
L56575 44584
" />
<path d="M56560 54005
L56560 50156
" />
<path d="M56560 48439
L56560 44590
" />
<path d="M56544 53998
L56544 50156
" />
<path d="M56544 48439
L56544 44598
" />
<path d="M56528 53991
L56528 50156
" />
<path d="M56528 48439
L56528 44604
" />
<path d="M56512 53984
L56512 50156
" />
<path d="M56512 48439
L56512 44611
" />
<path d="M56497 53977
L56497 50156
" />
<path d="M56497 48439
L56497 44618
" />
<path d="M56481 53970
L56481 50156
" />
<path d="M56481 48439
L56481 44625
" />
<path d="M56465 53962
L56465 50156
" />
<path d="M56465 48439
L56465 44633
" />
<path d="M56449 53955
L56449 50156
" />
<path d="M56449 48439
L56449 44640
" />
<path d="M56434 53948
L56434 50156
" />
<path d="M56434 48439
L56434 44648
" />
<path d="M56418 53940
L56418 50156
" />
<path d="M56418 48439
L56418 44655
" />
<path d="M56402 53933
L56402 50156
" />
<path d="M56402 48439
L56402 44662
" />
<path d="M56386 53925
L56386 50156
" />
<path d="M56386 48439
L56386 44670
" />
<path d="M56371 53918
L56371 50156
" />
<path d="M56371 48439
L56371 44677
" />
<path d="M56355 53910
L56355 50156
" />
<path d="M56355 48439
L56355 44685
" />
<path d="M56339 53902
L56339 50156
" />
<path d="M56339 48439
L56339 44693
" />
<path d="M56323 53894
L56323 50156
" />
<path d="M56323 48439
L56323 44701
" />
<path d="M56308 53886
L56308 50156
" />
<path d="M56308 48439
L56308 44709
" />
<path d="M56292 53878
L56292 50156
" />
<path d="M56292 48439
L56292 44717
" />
<path d="M56276 53870
L56276 50156
" />
<path d="M56276 48439
L56276 44725
" />
<path d="M56260 53862
L56260 50156
" />
<path d="M56260 48439
L56260 44733
" />
<path d="M56245 53854
L56245 50156
" />
<path d="M56245 48439
L56245 44741
" />
<path d="M56229 53846
L56229 50156
" />
<path d="M56229 48439
L56229 44749
" />
<path d="M56213 53838
L56213 50156
" />
<path d="M56213 48439
L56213 44757
" />
<path d="M56197 53829
L56197 50156
" />
<path d="M56197 48439
L56197 44766
" />
<path d="M56182 53821
L56182 50156
" />
<path d="M56182 48439
L56182 44774
" />
<path d="M56166 53812
L56166 50156
" />
<path d="M56166 48439
L56166 44783
" />
<path d="M56150 53804
L56150 50156
" />
<path d="M56150 48439
L56150 44791
" />
<path d="M56134 53795
L56134 50156
" />
<path d="M56134 48439
L56134 44800
" />
<path d="M56119 53786
L56119 50156
" />
<path d="M56119 48439
L56119 44809
" />
<path d="M56103 53777
L56103 50156
" />
<path d="M56103 48439
L56103 44818
" />
<path d="M56087 53769
L56087 50156
" />
<path d="M56087 48439
L56087 44826
" />
<path d="M56071 53760
L56071 50156
" />
<path d="M56071 48439
L56071 44835
" />
<path d="M56056 53751
L56056 50156
" />
<path d="M56056 48439
L56056 44844
" />
<path d="M56040 53742
L56040 50156
" />
<path d="M56040 48439
L56040 44853
" />
<path d="M56024 53733
L56024 50156
" />
<path d="M56024 48439
L56024 44862
" />
<path d="M56008 53723
L56008 50156
" />
<path d="M56008 48439
L56008 44872
" />
<path d="M55993 53714
L55993 50156
" />
<path d="M55993 48439
L55993 44881
" />
<path d="M55977 53705
L55977 50156
" />
<path d="M55977 48439
L55977 44890
" />
<path d="M55961 53695
L55961 50156
" />
<path d="M55961 48439
L55961 44900
" />
<path d="M55945 53686
L55945 50156
" />
<path d="M55945 48439
L55945 44909
" />
<path d="M55930 53676
L55930 50156
" />
<path d="M55930 48439
L55930 44919
" />
<path d="M55914 53666
L55914 50156
" />
<path d="M55914 48439
L55914 44929
" />
<path d="M55898 53657
L55898 50156
" />
<path d="M55898 48439
L55898 44938
" />
<path d="M55882 53647
L55882 50156
" />
<path d="M55882 48439
L55882 44948
" />
<path d="M55867 53637
L55867 50156
" />
<path d="M55867 48439
L55867 44958
" />
<path d="M55851 53627
L55851 50156
" />
<path d="M55851 48439
L55851 44968
" />
<path d="M55835 53617
L55835 50156
" />
<path d="M55835 48439
L55835 44978
" />
<path d="M55819 53607
L55819 50156
" />
<path d="M55819 48439
L55819 44988
" />
<path d="M55804 53596
L55804 50156
" />
<path d="M55804 48439
L55804 44999
" />
<path d="M55788 53586
L55788 45009
" />
<path d="M55772 53575
L55772 45020
" />
<path d="M55756 53565
L55756 45030
" />
<path d="M55741 53554
L55741 45041
" />
<path d="M55725 53544
L55725 45051
" />
<path d="M55709 53533
L55709 45062
" />
<path d="M55693 53522
L55693 45073
" />
<path d="M55678 53511
L55678 45084
" />
<path d="M55662 53500
L55662 45095
" />
<path d="M55646 53489
L55646 45106
" />
<path d="M55630 53478
L55630 45117
" />
<path d="M55615 53467
L55615 45128
" />
<path d="M55599 53455
L55599 45140
" />
<path d="M55583 53444
L55583 45151
" />
<path d="M55567 53432
L55567 45163
" />
<path d="M55552 53421
L55552 45174
" />
<path d="M55536 53409
L55536 45186
" />
<path d="M55520 53397
L55520 45198
" />
<path d="M55504 53385
L55504 45210
" />
<path d="M55489 53373
L55489 45222
" />
<path d="M55473 53361
L55473 45234
" />
<path d="M55457 53349
L55457 45246
" />
<path d="M55442 53336
L55442 45259
" />
<path d="M55426 53324
L55426 45271
" />
<path d="M55410 53312
L55410 45283
" />
<path d="M55395 53299
L55395 45296
" />
<path d="M55379 53286
L55379 45309
" />
<path d="M55363 53273
L55363 45322
" />
<path d="M55347 53260
L55347 45335
" />
<path d="M55332 53248
L55332 45348
" />
<path d="M55316 53235
L55316 45360
" />
<path d="M55300 53221
L55300 45374
" />
<path d="M55284 53208
L55284 45387
" />
<path d="M55269 53194
L55269 45401
" />
<path d="M55253 53181
L55253 45414
" />
<path d="M55237 53167
L55237 45428
" />
<path d="M55221 53153
L55221 45442
" />
<path d="M55206 53140
L55206 45455
" />
<path d="M55190 53125
L55190 45470
" />
<path d="M55174 53111
L55174 45484
" />
<path d="M55158 53097
L55158 45498
" />
<path d="M55143 53083
L55143 45512
" />
<path d="M55127 53068
L55127 45527
" />
<path d="M55111 53054
L55111 45541
" />
<path d="M55095 53039
L55095 45556
" />
<path d="M55080 53024
L55080 45571
" />
<path d="M55064 53009
L55064 45586
" />
<path d="M55048 52994
L55048 45601
" />
<path d="M55032 52979
L55032 45616
" />
<path d="M55017 52964
L55017 45631
" />
<path d="M55001 52948
L55001 45647
" />
<path d="M54985 52933
L54985 45662
" />
<path d="M54969 52916
L54969 45679
" />
<path d="M54954 52901
L54954 45694
" />
<path d="M54938 52885
L54938 45710
" />
<path d="M54922 52868
L54922 45727
" />
<path d="M54906 52852
L54906 45743
" />
<path d="M54891 52836
L54891 45759
" />
<path d="M54875 52819
L54875 45776
" />
<path d="M54859 52802
L54859 45793
" />
<path d="M54843 52785
L54843 45810
" />
<path d="M54828 52768
L54828 45827
" />
<path d="M54812 52751
L54812 45844
" />
<path d="M54796 52734
L54796 45861
" />
<path d="M54780 52716
L54780 45879
" />
<path d="M54765 52699
L54765 45896
" />
<path d="M54749 52681
L54749 45914
" />
<path d="M54733 52662
L54733 45933
" />
<path d="M54717 52644
L54717 45951
" />
<path d="M54702 52626
L54702 45969
" />
<path d="M54686 52607
L54686 45988
" />
<path d="M54670 52589
L54670 46006
" />
<path d="M54654 52570
L54654 46025
" />
<path d="M54639 52551
L54639 46044
" />
<path d="M54623 52531
L54623 46064
" />
<path d="M54607 52512
L54607 46083
" />
<path d="M54592 52492
L54592 46103
" />
<path d="M54576 52472
L54576 46123
" />
<path d="M54560 52452
L54560 46143
" />
<path d="M54544 52432
L54544 46163
" />
<path d="M54529 52412
L54529 46183
" />
<path d="M54513 52391
L54513 46204
" />
<path d="M54497 52370
L54497 46225
" />
<path d="M54481 52349
L54481 46246
" />
<path d="M54466 52327
L54466 46268
" />
<path d="M54450 52306
L54450 46289
" />
<path d="M54434 52284
L54434 46311
" />
<path d="M54418 52262
L54418 46333
" />
<path d="M54403 52239
L54403 46356
" />
<path d="M54387 52217
L54387 46378
" />
<path d="M54371 52194
L54371 46401
" />
<path d="M54355 52171
L54355 46424
" />
<path d="M54340 52148
L54340 46448
" />
<path d="M54324 52124
L54324 46471
" />
<path d="M54308 52100
L54308 46495
" />
<path d="M54292 52075
L54292 46520
" />
<path d="M54277 52051
L54277 46544
" />
<path d="M54261 52026
L54261 46569
" />
<path d="M54245 52001
L54245 46594
" />
<path d="M54229 51975
L54229 46620
" />
<path d="M54214 51949
L54214 46646
" />
<path d="M54198 51923
L54198 46672
" />
<path d="M54182 51897
L54182 46698
" />
<path d="M54166 51870
L54166 46725
" />
<path d="M54151 51842
L54151 46753
" />
<path d="M54135 51815
L54135 46780
" />
<path d="M54119 51786
L54119 46809
" />
<path d="M54103 51758
L54103 46837
" />
<path d="M54088 51729
L54088 46866
" />
<path d="M54072 51700
L54072 46895
" />
<path d="M54056 51670
L54056 46925
" />
<path d="M54040 51640
L54040 46955
" />
<path d="M54025 51609
L54025 46986
" />
<path d="M54009 51577
L54009 47018
" />
<path d="M53993 51545
L53993 47050
" />
<path d="M53977 51513
L53977 47082
" />
<path d="M53962 51480
L53962 47115
" />
<path d="M53946 51446
L53946 47149
" />
<path d="M53930 51412
L53930 47183
" />
<path d="M53914 51377
L53914 47218
" />
<path d="M53899 51341
L53899 47254
" />
<path d="M53883 51304
L53883 47291
" />
<path d="M53867 51267
L53867 47328
" />
<path d="M53851 51229
L53851 47366
" />
<path d="M53836 51190
L53836 47405
" />
<path d="M53820 51150
L53820 47445
" />
<path d="M53804 51109
L53804 47486
" />
<path d="M53788 51067
L53788 47528
" />
<path d="M53773 51023
L53773 47572
" />
<path d="M53757 50979
L53757 47616
" />
<path d="M53741 50933
L53741 47662
" />
<path d="M53725 50886
L53725 47709
" />
<path d="M53710 50837
L53710 47758
" />
<path d="M53694 50786
L53694 47809
" />
<path d="M53678 50734
L53678 47861
" />
<path d="M53662 50679
L53662 47916
" />
<path d="M53647 50622
L53647 47973
" />
<path d="M53631 50562
L53631 48033
" />
<path d="M53615 50499
L53615 48096
" />
<path d="M53599 50432
L53599 48163
" />
<path d="M53584 50361
L53584 48234
" />
<path d="M53568 50285
L53568 48310
" />
<path d="M53552 50201
L53552 48394
" />
<path d="M53536 50110
L53536 48485
" />
<path d="M53521 50007
L53521 48588
" />
<path d="M53505 49885
L53505 48710
" />
<path d="M53489 49732
L53489 48863
" />
<path d="M53473 49483
L53473 49112
" />
<path d="M62639 49298
L61458 49298
" />
<path d="M62048 49888
L62048 48707
" />
<circle cx="58623.5" cy="49298" r="5153.54" /> 
<path d="M49384 43146
L49384 38646
" />
<path d="M49384 38646
L49634 38396
" />
<path d="M49634 38396
L54134 38396
" />
<path d="M54134 38396
L54384 38646
" />
<path d="M54384 38646
L54384 43146
" />
<path d="M54134 43396
L49634 43396
" />
<path d="M49634 43396
L49384 43146
" />
<path d="M54384 43146
L54134 43396
" />
<path d="M63106 43108
L63106 38608
" />
<path d="M63106 38608
L63356 38358
" />
<path d="M63356 38358
L67856 38358
" />
<path d="M67856 38358
L68106 38608
" />
<path d="M68106 38608
L68106 43108
" />
<path d="M67856 43358
L63356 43358
" />
<path d="M63356 43358
L63106 43108
" />
<path d="M68106 43108
L67856 43358
" />
<path d="M59470 31817
L58053 31817
" />
<path d="M58762 33569.6 A1023.62 1023.62 0.0 0 0 59485.8 31822.2 " />
<path d="M58038.2 31822.2 A1023.62 1023.62 0.0 0 0 58762 33569.6 " />
<path d="M57236 41334
L57236 42365
" />
<path d="M57236 42365
L59763 42365
" />
<path d="M59763 42365
L59763 41334
" />
<path d="M59763 41334
L57236 41334
" />
<path d="M56885 41850
L57236 41850
" />
<path d="M60114 41850
L59763 41850
" />
<path d="M57386 34962
L57386 35993
" />
<path d="M57386 35993
L59913 35993
" />
<path d="M59913 35993
L59913 34962
" />
<path d="M59913 34962
L57386 34962
" />
<path d="M57035 35478
L57386 35478
" />
<path d="M60264 35478
L59913 35478
" />
<path d="M59805 40287
L59805 39256
" />
<path d="M59805 39256
L57278 39256
" />
<path d="M57278 39256
L57278 40287
" />
<path d="M57278 40287
L59805 40287
" />
<path d="M60156 39772
L59805 39772
" />
<path d="M56927 39772
L57278 39772
" />
<path d="M57308 37068
L57308 38099
" />
<path d="M57308 38099
L59835 38099
" />
<path d="M59835 38099
L59835 37068
" />
<path d="M59835 37068
L57308 37068
" />
<path d="M56957 37584
L57308 37584
" />
<path d="M60186 37584
L59835 37584
" />
</g> 
</svg>
