M48
;DRILL file {KiCad 4.0.5} date 05/24/17 22:27:55
;FORMAT={-:-/ absolute / inch / decimal}
FMAT,2
INCH,TZ
T1C0.024
T2C0.031
T3C0.045
T4C0.047
T5C0.079
%
G90
G05
M72
T1
X5.8262Y-3.2546
X5.8762Y-3.3046
X5.9262Y-3.2546
T2
X5.65Y-4.185
X5.6542Y-3.9772
X5.6572Y-3.7584
X5.665Y-3.5478
X6.05Y-4.185
X6.0542Y-3.9772
X6.0572Y-3.7584
X6.065Y-3.5478
T3
X4.9884Y-3.9896
X5.3884Y-4.1896
X6.3606Y-3.9858
X6.7606Y-4.1858
T4
X5.0661Y-3.29
X5.3614Y-3.29
X6.4042Y-3.2664
X6.6995Y-3.2664
T5
X5.6655Y-4.9298
X6.0592Y-4.9298
T0
M30
