G04 #@! TF.FileFunction,Legend,Top*
%FSLAX46Y46*%
G04 Gerber Fmt 4.6, Leading zero omitted, Abs format (unit mm)*
G04 Created by KiCad (PCBNEW 4.0.5) date 05/24/17 22:27:59*
%MOMM*%
%LPD*%
G01*
G04 APERTURE LIST*
%ADD10C,0.100000*%
%ADD11C,0.120000*%
%ADD12C,0.150000*%
G04 APERTURE END LIST*
D10*
D11*
X132429560Y-91617000D02*
X132429560Y-75515000D01*
X132389560Y-91616000D02*
X132389560Y-75516000D01*
X132349560Y-91616000D02*
X132349560Y-75516000D01*
X132309560Y-91616000D02*
X132309560Y-75516000D01*
X132269560Y-91615000D02*
X132269560Y-75517000D01*
X132229560Y-91614000D02*
X132229560Y-75518000D01*
X132189560Y-91613000D02*
X132189560Y-75519000D01*
X132149560Y-91612000D02*
X132149560Y-75520000D01*
X132109560Y-91610000D02*
X132109560Y-75522000D01*
X132069560Y-91608000D02*
X132069560Y-75524000D01*
X132029560Y-91607000D02*
X132029560Y-75525000D01*
X131989560Y-91605000D02*
X131989560Y-75527000D01*
X131949560Y-91602000D02*
X131949560Y-75530000D01*
X131909560Y-91600000D02*
X131909560Y-75532000D01*
X131869560Y-91597000D02*
X131869560Y-75535000D01*
X131829560Y-91594000D02*
X131829560Y-75538000D01*
X131789560Y-91591000D02*
X131789560Y-75541000D01*
X131749560Y-91588000D02*
X131749560Y-75544000D01*
X131708560Y-91584000D02*
X131708560Y-75548000D01*
X131668560Y-91581000D02*
X131668560Y-75551000D01*
X131628560Y-91577000D02*
X131628560Y-75555000D01*
X131588560Y-91573000D02*
X131588560Y-75559000D01*
X131548560Y-91568000D02*
X131548560Y-75564000D01*
X131508560Y-91564000D02*
X131508560Y-75568000D01*
X131468560Y-91559000D02*
X131468560Y-75573000D01*
X131428560Y-91554000D02*
X131428560Y-75578000D01*
X131388560Y-91549000D02*
X131388560Y-75583000D01*
X131348560Y-91544000D02*
X131348560Y-75588000D01*
X131308560Y-91539000D02*
X131308560Y-75593000D01*
X131268560Y-91533000D02*
X131268560Y-75599000D01*
X131228560Y-91527000D02*
X131228560Y-75605000D01*
X131188560Y-91521000D02*
X131188560Y-75611000D01*
X131148560Y-91515000D02*
X131148560Y-75617000D01*
X131108560Y-91508000D02*
X131108560Y-75624000D01*
X131068560Y-91501000D02*
X131068560Y-75631000D01*
X131028560Y-91494000D02*
X131028560Y-75638000D01*
X130988560Y-91487000D02*
X130988560Y-75645000D01*
X130948560Y-91480000D02*
X130948560Y-75652000D01*
X130908560Y-91472000D02*
X130908560Y-75660000D01*
X130868560Y-91465000D02*
X130868560Y-75667000D01*
X130828560Y-91457000D02*
X130828560Y-75675000D01*
X130788560Y-91449000D02*
X130788560Y-75683000D01*
X130748560Y-91440000D02*
X130748560Y-75692000D01*
X130708560Y-91432000D02*
X130708560Y-75700000D01*
X130668560Y-91423000D02*
X130668560Y-75709000D01*
X130628560Y-91414000D02*
X130628560Y-75718000D01*
X130588560Y-91404000D02*
X130588560Y-75728000D01*
X130548560Y-91395000D02*
X130548560Y-75737000D01*
X130508560Y-91385000D02*
X130508560Y-75747000D01*
X130468560Y-91375000D02*
X130468560Y-75757000D01*
X130428560Y-91365000D02*
X130428560Y-75767000D01*
X130388560Y-91355000D02*
X130388560Y-75777000D01*
X130348560Y-91345000D02*
X130348560Y-75787000D01*
X130308560Y-91334000D02*
X130308560Y-75798000D01*
X130268560Y-91323000D02*
X130268560Y-75809000D01*
X130228560Y-91312000D02*
X130228560Y-75820000D01*
X130188560Y-91300000D02*
X130188560Y-75832000D01*
X130148560Y-91289000D02*
X130148560Y-75843000D01*
X130108560Y-91277000D02*
X130108560Y-75855000D01*
X130068560Y-91265000D02*
X130068560Y-75867000D01*
X130028560Y-91252000D02*
X130028560Y-84946000D01*
X130028560Y-82186000D02*
X130028560Y-75880000D01*
X129988560Y-91240000D02*
X129988560Y-84946000D01*
X129988560Y-82186000D02*
X129988560Y-75892000D01*
X129948560Y-91227000D02*
X129948560Y-84946000D01*
X129948560Y-82186000D02*
X129948560Y-75905000D01*
X129908560Y-91214000D02*
X129908560Y-84946000D01*
X129908560Y-82186000D02*
X129908560Y-75918000D01*
X129868560Y-91201000D02*
X129868560Y-84946000D01*
X129868560Y-82186000D02*
X129868560Y-75931000D01*
X129828560Y-91187000D02*
X129828560Y-84946000D01*
X129828560Y-82186000D02*
X129828560Y-75945000D01*
X129788560Y-91174000D02*
X129788560Y-84946000D01*
X129788560Y-82186000D02*
X129788560Y-75958000D01*
X129748560Y-91160000D02*
X129748560Y-84946000D01*
X129748560Y-82186000D02*
X129748560Y-75972000D01*
X129708560Y-91146000D02*
X129708560Y-84946000D01*
X129708560Y-82186000D02*
X129708560Y-75986000D01*
X129668560Y-91131000D02*
X129668560Y-84946000D01*
X129668560Y-82186000D02*
X129668560Y-76001000D01*
X129628560Y-91116000D02*
X129628560Y-84946000D01*
X129628560Y-82186000D02*
X129628560Y-76016000D01*
X129588560Y-91102000D02*
X129588560Y-84946000D01*
X129588560Y-82186000D02*
X129588560Y-76030000D01*
X129548560Y-91087000D02*
X129548560Y-84946000D01*
X129548560Y-82186000D02*
X129548560Y-76045000D01*
X129508560Y-91071000D02*
X129508560Y-84946000D01*
X129508560Y-82186000D02*
X129508560Y-76061000D01*
X129468560Y-91056000D02*
X129468560Y-84946000D01*
X129468560Y-82186000D02*
X129468560Y-76076000D01*
X129428560Y-91040000D02*
X129428560Y-84946000D01*
X129428560Y-82186000D02*
X129428560Y-76092000D01*
X129388560Y-91024000D02*
X129388560Y-84946000D01*
X129388560Y-82186000D02*
X129388560Y-76108000D01*
X129348560Y-91007000D02*
X129348560Y-84946000D01*
X129348560Y-82186000D02*
X129348560Y-76125000D01*
X129308560Y-90991000D02*
X129308560Y-84946000D01*
X129308560Y-82186000D02*
X129308560Y-76141000D01*
X129268560Y-90974000D02*
X129268560Y-84946000D01*
X129268560Y-82186000D02*
X129268560Y-76158000D01*
X129228560Y-90957000D02*
X129228560Y-84946000D01*
X129228560Y-82186000D02*
X129228560Y-76175000D01*
X129188560Y-90939000D02*
X129188560Y-84946000D01*
X129188560Y-82186000D02*
X129188560Y-76193000D01*
X129148560Y-90922000D02*
X129148560Y-84946000D01*
X129148560Y-82186000D02*
X129148560Y-76210000D01*
X129108560Y-90904000D02*
X129108560Y-84946000D01*
X129108560Y-82186000D02*
X129108560Y-76228000D01*
X129068560Y-90886000D02*
X129068560Y-84946000D01*
X129068560Y-82186000D02*
X129068560Y-76246000D01*
X129028560Y-90867000D02*
X129028560Y-84946000D01*
X129028560Y-82186000D02*
X129028560Y-76265000D01*
X128988560Y-90849000D02*
X128988560Y-84946000D01*
X128988560Y-82186000D02*
X128988560Y-76283000D01*
X128948560Y-90830000D02*
X128948560Y-84946000D01*
X128948560Y-82186000D02*
X128948560Y-76302000D01*
X128908560Y-90811000D02*
X128908560Y-84946000D01*
X128908560Y-82186000D02*
X128908560Y-76321000D01*
X128868560Y-90791000D02*
X128868560Y-84946000D01*
X128868560Y-82186000D02*
X128868560Y-76341000D01*
X128828560Y-90771000D02*
X128828560Y-84946000D01*
X128828560Y-82186000D02*
X128828560Y-76361000D01*
X128788560Y-90751000D02*
X128788560Y-84946000D01*
X128788560Y-82186000D02*
X128788560Y-76381000D01*
X128748560Y-90731000D02*
X128748560Y-84946000D01*
X128748560Y-82186000D02*
X128748560Y-76401000D01*
X128708560Y-90710000D02*
X128708560Y-84946000D01*
X128708560Y-82186000D02*
X128708560Y-76422000D01*
X128668560Y-90690000D02*
X128668560Y-84946000D01*
X128668560Y-82186000D02*
X128668560Y-76442000D01*
X128628560Y-90668000D02*
X128628560Y-84946000D01*
X128628560Y-82186000D02*
X128628560Y-76464000D01*
X128588560Y-90647000D02*
X128588560Y-84946000D01*
X128588560Y-82186000D02*
X128588560Y-76485000D01*
X128548560Y-90625000D02*
X128548560Y-84946000D01*
X128548560Y-82186000D02*
X128548560Y-76507000D01*
X128508560Y-90603000D02*
X128508560Y-84946000D01*
X128508560Y-82186000D02*
X128508560Y-76529000D01*
X128468560Y-90581000D02*
X128468560Y-84946000D01*
X128468560Y-82186000D02*
X128468560Y-76551000D01*
X128428560Y-90558000D02*
X128428560Y-84946000D01*
X128428560Y-82186000D02*
X128428560Y-76574000D01*
X128388560Y-90536000D02*
X128388560Y-84946000D01*
X128388560Y-82186000D02*
X128388560Y-76596000D01*
X128348560Y-90512000D02*
X128348560Y-84946000D01*
X128348560Y-82186000D02*
X128348560Y-76620000D01*
X128308560Y-90489000D02*
X128308560Y-84946000D01*
X128308560Y-82186000D02*
X128308560Y-76643000D01*
X128268560Y-90465000D02*
X128268560Y-84946000D01*
X128268560Y-82186000D02*
X128268560Y-76667000D01*
X128228560Y-90441000D02*
X128228560Y-84946000D01*
X128228560Y-82186000D02*
X128228560Y-76691000D01*
X128188560Y-90416000D02*
X128188560Y-84946000D01*
X128188560Y-82186000D02*
X128188560Y-76716000D01*
X128148560Y-90392000D02*
X128148560Y-84946000D01*
X128148560Y-82186000D02*
X128148560Y-76740000D01*
X128108560Y-90367000D02*
X128108560Y-84946000D01*
X128108560Y-82186000D02*
X128108560Y-76765000D01*
X128068560Y-90341000D02*
X128068560Y-84946000D01*
X128068560Y-82186000D02*
X128068560Y-76791000D01*
X128028560Y-90315000D02*
X128028560Y-84946000D01*
X128028560Y-82186000D02*
X128028560Y-76817000D01*
X127988560Y-90289000D02*
X127988560Y-84946000D01*
X127988560Y-82186000D02*
X127988560Y-76843000D01*
X127948560Y-90263000D02*
X127948560Y-84946000D01*
X127948560Y-82186000D02*
X127948560Y-76869000D01*
X127908560Y-90236000D02*
X127908560Y-84946000D01*
X127908560Y-82186000D02*
X127908560Y-76896000D01*
X127868560Y-90209000D02*
X127868560Y-84946000D01*
X127868560Y-82186000D02*
X127868560Y-76923000D01*
X127828560Y-90181000D02*
X127828560Y-84946000D01*
X127828560Y-82186000D02*
X127828560Y-76951000D01*
X127788560Y-90154000D02*
X127788560Y-84946000D01*
X127788560Y-82186000D02*
X127788560Y-76978000D01*
X127748560Y-90125000D02*
X127748560Y-84946000D01*
X127748560Y-82186000D02*
X127748560Y-77007000D01*
X127708560Y-90097000D02*
X127708560Y-84946000D01*
X127708560Y-82186000D02*
X127708560Y-77035000D01*
X127668560Y-90068000D02*
X127668560Y-84946000D01*
X127668560Y-82186000D02*
X127668560Y-77064000D01*
X127628560Y-90039000D02*
X127628560Y-84946000D01*
X127628560Y-82186000D02*
X127628560Y-77093000D01*
X127588560Y-90009000D02*
X127588560Y-84946000D01*
X127588560Y-82186000D02*
X127588560Y-77123000D01*
X127548560Y-89979000D02*
X127548560Y-84946000D01*
X127548560Y-82186000D02*
X127548560Y-77153000D01*
X127508560Y-89948000D02*
X127508560Y-84946000D01*
X127508560Y-82186000D02*
X127508560Y-77184000D01*
X127468560Y-89918000D02*
X127468560Y-84946000D01*
X127468560Y-82186000D02*
X127468560Y-77214000D01*
X127428560Y-89886000D02*
X127428560Y-84946000D01*
X127428560Y-82186000D02*
X127428560Y-77246000D01*
X127388560Y-89855000D02*
X127388560Y-84946000D01*
X127388560Y-82186000D02*
X127388560Y-77277000D01*
X127348560Y-89823000D02*
X127348560Y-84946000D01*
X127348560Y-82186000D02*
X127348560Y-77309000D01*
X127308560Y-89790000D02*
X127308560Y-84946000D01*
X127308560Y-82186000D02*
X127308560Y-77342000D01*
X127268560Y-89757000D02*
X127268560Y-77375000D01*
X127228560Y-89724000D02*
X127228560Y-77408000D01*
X127188560Y-89690000D02*
X127188560Y-77442000D01*
X127148560Y-89656000D02*
X127148560Y-77476000D01*
X127108560Y-89621000D02*
X127108560Y-77511000D01*
X127068560Y-89586000D02*
X127068560Y-77546000D01*
X127028560Y-89550000D02*
X127028560Y-77582000D01*
X126988560Y-89514000D02*
X126988560Y-77618000D01*
X126948560Y-89478000D02*
X126948560Y-77654000D01*
X126908560Y-89441000D02*
X126908560Y-77691000D01*
X126868560Y-89403000D02*
X126868560Y-77729000D01*
X126828560Y-89365000D02*
X126828560Y-77767000D01*
X126788560Y-89326000D02*
X126788560Y-77806000D01*
X126748560Y-89287000D02*
X126748560Y-77845000D01*
X126708560Y-89247000D02*
X126708560Y-77885000D01*
X126668560Y-89207000D02*
X126668560Y-77925000D01*
X126628560Y-89166000D02*
X126628560Y-77966000D01*
X126588560Y-89125000D02*
X126588560Y-78007000D01*
X126548560Y-89083000D02*
X126548560Y-78049000D01*
X126508560Y-89040000D02*
X126508560Y-78092000D01*
X126468560Y-88997000D02*
X126468560Y-78135000D01*
X126428560Y-88953000D02*
X126428560Y-78179000D01*
X126388560Y-88909000D02*
X126388560Y-78223000D01*
X126348560Y-88863000D02*
X126348560Y-78269000D01*
X126308560Y-88817000D02*
X126308560Y-78315000D01*
X126268560Y-88771000D02*
X126268560Y-78361000D01*
X126228560Y-88723000D02*
X126228560Y-78409000D01*
X126188560Y-88675000D02*
X126188560Y-78457000D01*
X126148560Y-88626000D02*
X126148560Y-78506000D01*
X126108560Y-88577000D02*
X126108560Y-78555000D01*
X126068560Y-88526000D02*
X126068560Y-78606000D01*
X126028560Y-88475000D02*
X126028560Y-78657000D01*
X125988560Y-88423000D02*
X125988560Y-78709000D01*
X125948560Y-88370000D02*
X125948560Y-78762000D01*
X125908560Y-88316000D02*
X125908560Y-78816000D01*
X125868560Y-88261000D02*
X125868560Y-78871000D01*
X125828560Y-88205000D02*
X125828560Y-78927000D01*
X125788560Y-88148000D02*
X125788560Y-78984000D01*
X125748560Y-88090000D02*
X125748560Y-79042000D01*
X125708560Y-88031000D02*
X125708560Y-79101000D01*
X125668560Y-87971000D02*
X125668560Y-79161000D01*
X125628560Y-87909000D02*
X125628560Y-79223000D01*
X125588560Y-87847000D02*
X125588560Y-79285000D01*
X125548560Y-87783000D02*
X125548560Y-79349000D01*
X125508560Y-87717000D02*
X125508560Y-79415000D01*
X125468560Y-87650000D02*
X125468560Y-79482000D01*
X125428560Y-87582000D02*
X125428560Y-79550000D01*
X125388560Y-87512000D02*
X125388560Y-79620000D01*
X125348560Y-87441000D02*
X125348560Y-79691000D01*
X125308560Y-87368000D02*
X125308560Y-79764000D01*
X125268560Y-87292000D02*
X125268560Y-79840000D01*
X125228560Y-87215000D02*
X125228560Y-79917000D01*
X125188560Y-87136000D02*
X125188560Y-79996000D01*
X125148560Y-87055000D02*
X125148560Y-80077000D01*
X125108560Y-86971000D02*
X125108560Y-80161000D01*
X125068560Y-86885000D02*
X125068560Y-80247000D01*
X125028560Y-86796000D02*
X125028560Y-80336000D01*
X124988560Y-86704000D02*
X124988560Y-80428000D01*
X124948560Y-86608000D02*
X124948560Y-80524000D01*
X124908560Y-86509000D02*
X124908560Y-80623000D01*
X124868560Y-86407000D02*
X124868560Y-80725000D01*
X124828560Y-86299000D02*
X124828560Y-80833000D01*
X124788560Y-86187000D02*
X124788560Y-80945000D01*
X124748560Y-86069000D02*
X124748560Y-81063000D01*
X124708560Y-85945000D02*
X124708560Y-81187000D01*
X124668560Y-85814000D02*
X124668560Y-81318000D01*
X124628560Y-85673000D02*
X124628560Y-81459000D01*
X124588560Y-85522000D02*
X124588560Y-81610000D01*
X124548560Y-85358000D02*
X124548560Y-81774000D01*
X124508560Y-85176000D02*
X124508560Y-81956000D01*
X124468560Y-84971000D02*
X124468560Y-82161000D01*
X124428560Y-84730000D02*
X124428560Y-82402000D01*
X124388560Y-84425000D02*
X124388560Y-82707000D01*
X124348560Y-83929000D02*
X124348560Y-83203000D01*
X139379560Y-83566000D02*
X137579560Y-83566000D01*
X138479560Y-84466000D02*
X138479560Y-82666000D01*
X140519560Y-83566000D02*
G75*
G03X140519560Y-83566000I-8090000J0D01*
G01*
X166416680Y-91017560D02*
X166416680Y-74915560D01*
X166376680Y-91016560D02*
X166376680Y-74916560D01*
X166336680Y-91016560D02*
X166336680Y-74916560D01*
X166296680Y-91016560D02*
X166296680Y-74916560D01*
X166256680Y-91015560D02*
X166256680Y-74917560D01*
X166216680Y-91014560D02*
X166216680Y-74918560D01*
X166176680Y-91013560D02*
X166176680Y-74919560D01*
X166136680Y-91012560D02*
X166136680Y-74920560D01*
X166096680Y-91010560D02*
X166096680Y-74922560D01*
X166056680Y-91008560D02*
X166056680Y-74924560D01*
X166016680Y-91007560D02*
X166016680Y-74925560D01*
X165976680Y-91005560D02*
X165976680Y-74927560D01*
X165936680Y-91002560D02*
X165936680Y-74930560D01*
X165896680Y-91000560D02*
X165896680Y-74932560D01*
X165856680Y-90997560D02*
X165856680Y-74935560D01*
X165816680Y-90994560D02*
X165816680Y-74938560D01*
X165776680Y-90991560D02*
X165776680Y-74941560D01*
X165736680Y-90988560D02*
X165736680Y-74944560D01*
X165695680Y-90984560D02*
X165695680Y-74948560D01*
X165655680Y-90981560D02*
X165655680Y-74951560D01*
X165615680Y-90977560D02*
X165615680Y-74955560D01*
X165575680Y-90973560D02*
X165575680Y-74959560D01*
X165535680Y-90968560D02*
X165535680Y-74964560D01*
X165495680Y-90964560D02*
X165495680Y-74968560D01*
X165455680Y-90959560D02*
X165455680Y-74973560D01*
X165415680Y-90954560D02*
X165415680Y-74978560D01*
X165375680Y-90949560D02*
X165375680Y-74983560D01*
X165335680Y-90944560D02*
X165335680Y-74988560D01*
X165295680Y-90939560D02*
X165295680Y-74993560D01*
X165255680Y-90933560D02*
X165255680Y-74999560D01*
X165215680Y-90927560D02*
X165215680Y-75005560D01*
X165175680Y-90921560D02*
X165175680Y-75011560D01*
X165135680Y-90915560D02*
X165135680Y-75017560D01*
X165095680Y-90908560D02*
X165095680Y-75024560D01*
X165055680Y-90901560D02*
X165055680Y-75031560D01*
X165015680Y-90894560D02*
X165015680Y-75038560D01*
X164975680Y-90887560D02*
X164975680Y-75045560D01*
X164935680Y-90880560D02*
X164935680Y-75052560D01*
X164895680Y-90872560D02*
X164895680Y-75060560D01*
X164855680Y-90865560D02*
X164855680Y-75067560D01*
X164815680Y-90857560D02*
X164815680Y-75075560D01*
X164775680Y-90849560D02*
X164775680Y-75083560D01*
X164735680Y-90840560D02*
X164735680Y-75092560D01*
X164695680Y-90832560D02*
X164695680Y-75100560D01*
X164655680Y-90823560D02*
X164655680Y-75109560D01*
X164615680Y-90814560D02*
X164615680Y-75118560D01*
X164575680Y-90804560D02*
X164575680Y-75128560D01*
X164535680Y-90795560D02*
X164535680Y-75137560D01*
X164495680Y-90785560D02*
X164495680Y-75147560D01*
X164455680Y-90775560D02*
X164455680Y-75157560D01*
X164415680Y-90765560D02*
X164415680Y-75167560D01*
X164375680Y-90755560D02*
X164375680Y-75177560D01*
X164335680Y-90745560D02*
X164335680Y-75187560D01*
X164295680Y-90734560D02*
X164295680Y-75198560D01*
X164255680Y-90723560D02*
X164255680Y-75209560D01*
X164215680Y-90712560D02*
X164215680Y-75220560D01*
X164175680Y-90700560D02*
X164175680Y-75232560D01*
X164135680Y-90689560D02*
X164135680Y-75243560D01*
X164095680Y-90677560D02*
X164095680Y-75255560D01*
X164055680Y-90665560D02*
X164055680Y-75267560D01*
X164015680Y-90652560D02*
X164015680Y-84346560D01*
X164015680Y-81586560D02*
X164015680Y-75280560D01*
X163975680Y-90640560D02*
X163975680Y-84346560D01*
X163975680Y-81586560D02*
X163975680Y-75292560D01*
X163935680Y-90627560D02*
X163935680Y-84346560D01*
X163935680Y-81586560D02*
X163935680Y-75305560D01*
X163895680Y-90614560D02*
X163895680Y-84346560D01*
X163895680Y-81586560D02*
X163895680Y-75318560D01*
X163855680Y-90601560D02*
X163855680Y-84346560D01*
X163855680Y-81586560D02*
X163855680Y-75331560D01*
X163815680Y-90587560D02*
X163815680Y-84346560D01*
X163815680Y-81586560D02*
X163815680Y-75345560D01*
X163775680Y-90574560D02*
X163775680Y-84346560D01*
X163775680Y-81586560D02*
X163775680Y-75358560D01*
X163735680Y-90560560D02*
X163735680Y-84346560D01*
X163735680Y-81586560D02*
X163735680Y-75372560D01*
X163695680Y-90546560D02*
X163695680Y-84346560D01*
X163695680Y-81586560D02*
X163695680Y-75386560D01*
X163655680Y-90531560D02*
X163655680Y-84346560D01*
X163655680Y-81586560D02*
X163655680Y-75401560D01*
X163615680Y-90516560D02*
X163615680Y-84346560D01*
X163615680Y-81586560D02*
X163615680Y-75416560D01*
X163575680Y-90502560D02*
X163575680Y-84346560D01*
X163575680Y-81586560D02*
X163575680Y-75430560D01*
X163535680Y-90487560D02*
X163535680Y-84346560D01*
X163535680Y-81586560D02*
X163535680Y-75445560D01*
X163495680Y-90471560D02*
X163495680Y-84346560D01*
X163495680Y-81586560D02*
X163495680Y-75461560D01*
X163455680Y-90456560D02*
X163455680Y-84346560D01*
X163455680Y-81586560D02*
X163455680Y-75476560D01*
X163415680Y-90440560D02*
X163415680Y-84346560D01*
X163415680Y-81586560D02*
X163415680Y-75492560D01*
X163375680Y-90424560D02*
X163375680Y-84346560D01*
X163375680Y-81586560D02*
X163375680Y-75508560D01*
X163335680Y-90407560D02*
X163335680Y-84346560D01*
X163335680Y-81586560D02*
X163335680Y-75525560D01*
X163295680Y-90391560D02*
X163295680Y-84346560D01*
X163295680Y-81586560D02*
X163295680Y-75541560D01*
X163255680Y-90374560D02*
X163255680Y-84346560D01*
X163255680Y-81586560D02*
X163255680Y-75558560D01*
X163215680Y-90357560D02*
X163215680Y-84346560D01*
X163215680Y-81586560D02*
X163215680Y-75575560D01*
X163175680Y-90339560D02*
X163175680Y-84346560D01*
X163175680Y-81586560D02*
X163175680Y-75593560D01*
X163135680Y-90322560D02*
X163135680Y-84346560D01*
X163135680Y-81586560D02*
X163135680Y-75610560D01*
X163095680Y-90304560D02*
X163095680Y-84346560D01*
X163095680Y-81586560D02*
X163095680Y-75628560D01*
X163055680Y-90286560D02*
X163055680Y-84346560D01*
X163055680Y-81586560D02*
X163055680Y-75646560D01*
X163015680Y-90267560D02*
X163015680Y-84346560D01*
X163015680Y-81586560D02*
X163015680Y-75665560D01*
X162975680Y-90249560D02*
X162975680Y-84346560D01*
X162975680Y-81586560D02*
X162975680Y-75683560D01*
X162935680Y-90230560D02*
X162935680Y-84346560D01*
X162935680Y-81586560D02*
X162935680Y-75702560D01*
X162895680Y-90211560D02*
X162895680Y-84346560D01*
X162895680Y-81586560D02*
X162895680Y-75721560D01*
X162855680Y-90191560D02*
X162855680Y-84346560D01*
X162855680Y-81586560D02*
X162855680Y-75741560D01*
X162815680Y-90171560D02*
X162815680Y-84346560D01*
X162815680Y-81586560D02*
X162815680Y-75761560D01*
X162775680Y-90151560D02*
X162775680Y-84346560D01*
X162775680Y-81586560D02*
X162775680Y-75781560D01*
X162735680Y-90131560D02*
X162735680Y-84346560D01*
X162735680Y-81586560D02*
X162735680Y-75801560D01*
X162695680Y-90110560D02*
X162695680Y-84346560D01*
X162695680Y-81586560D02*
X162695680Y-75822560D01*
X162655680Y-90090560D02*
X162655680Y-84346560D01*
X162655680Y-81586560D02*
X162655680Y-75842560D01*
X162615680Y-90068560D02*
X162615680Y-84346560D01*
X162615680Y-81586560D02*
X162615680Y-75864560D01*
X162575680Y-90047560D02*
X162575680Y-84346560D01*
X162575680Y-81586560D02*
X162575680Y-75885560D01*
X162535680Y-90025560D02*
X162535680Y-84346560D01*
X162535680Y-81586560D02*
X162535680Y-75907560D01*
X162495680Y-90003560D02*
X162495680Y-84346560D01*
X162495680Y-81586560D02*
X162495680Y-75929560D01*
X162455680Y-89981560D02*
X162455680Y-84346560D01*
X162455680Y-81586560D02*
X162455680Y-75951560D01*
X162415680Y-89958560D02*
X162415680Y-84346560D01*
X162415680Y-81586560D02*
X162415680Y-75974560D01*
X162375680Y-89936560D02*
X162375680Y-84346560D01*
X162375680Y-81586560D02*
X162375680Y-75996560D01*
X162335680Y-89912560D02*
X162335680Y-84346560D01*
X162335680Y-81586560D02*
X162335680Y-76020560D01*
X162295680Y-89889560D02*
X162295680Y-84346560D01*
X162295680Y-81586560D02*
X162295680Y-76043560D01*
X162255680Y-89865560D02*
X162255680Y-84346560D01*
X162255680Y-81586560D02*
X162255680Y-76067560D01*
X162215680Y-89841560D02*
X162215680Y-84346560D01*
X162215680Y-81586560D02*
X162215680Y-76091560D01*
X162175680Y-89816560D02*
X162175680Y-84346560D01*
X162175680Y-81586560D02*
X162175680Y-76116560D01*
X162135680Y-89792560D02*
X162135680Y-84346560D01*
X162135680Y-81586560D02*
X162135680Y-76140560D01*
X162095680Y-89767560D02*
X162095680Y-84346560D01*
X162095680Y-81586560D02*
X162095680Y-76165560D01*
X162055680Y-89741560D02*
X162055680Y-84346560D01*
X162055680Y-81586560D02*
X162055680Y-76191560D01*
X162015680Y-89715560D02*
X162015680Y-84346560D01*
X162015680Y-81586560D02*
X162015680Y-76217560D01*
X161975680Y-89689560D02*
X161975680Y-84346560D01*
X161975680Y-81586560D02*
X161975680Y-76243560D01*
X161935680Y-89663560D02*
X161935680Y-84346560D01*
X161935680Y-81586560D02*
X161935680Y-76269560D01*
X161895680Y-89636560D02*
X161895680Y-84346560D01*
X161895680Y-81586560D02*
X161895680Y-76296560D01*
X161855680Y-89609560D02*
X161855680Y-84346560D01*
X161855680Y-81586560D02*
X161855680Y-76323560D01*
X161815680Y-89581560D02*
X161815680Y-84346560D01*
X161815680Y-81586560D02*
X161815680Y-76351560D01*
X161775680Y-89554560D02*
X161775680Y-84346560D01*
X161775680Y-81586560D02*
X161775680Y-76378560D01*
X161735680Y-89525560D02*
X161735680Y-84346560D01*
X161735680Y-81586560D02*
X161735680Y-76407560D01*
X161695680Y-89497560D02*
X161695680Y-84346560D01*
X161695680Y-81586560D02*
X161695680Y-76435560D01*
X161655680Y-89468560D02*
X161655680Y-84346560D01*
X161655680Y-81586560D02*
X161655680Y-76464560D01*
X161615680Y-89439560D02*
X161615680Y-84346560D01*
X161615680Y-81586560D02*
X161615680Y-76493560D01*
X161575680Y-89409560D02*
X161575680Y-84346560D01*
X161575680Y-81586560D02*
X161575680Y-76523560D01*
X161535680Y-89379560D02*
X161535680Y-84346560D01*
X161535680Y-81586560D02*
X161535680Y-76553560D01*
X161495680Y-89348560D02*
X161495680Y-84346560D01*
X161495680Y-81586560D02*
X161495680Y-76584560D01*
X161455680Y-89318560D02*
X161455680Y-84346560D01*
X161455680Y-81586560D02*
X161455680Y-76614560D01*
X161415680Y-89286560D02*
X161415680Y-84346560D01*
X161415680Y-81586560D02*
X161415680Y-76646560D01*
X161375680Y-89255560D02*
X161375680Y-84346560D01*
X161375680Y-81586560D02*
X161375680Y-76677560D01*
X161335680Y-89223560D02*
X161335680Y-84346560D01*
X161335680Y-81586560D02*
X161335680Y-76709560D01*
X161295680Y-89190560D02*
X161295680Y-84346560D01*
X161295680Y-81586560D02*
X161295680Y-76742560D01*
X161255680Y-89157560D02*
X161255680Y-76775560D01*
X161215680Y-89124560D02*
X161215680Y-76808560D01*
X161175680Y-89090560D02*
X161175680Y-76842560D01*
X161135680Y-89056560D02*
X161135680Y-76876560D01*
X161095680Y-89021560D02*
X161095680Y-76911560D01*
X161055680Y-88986560D02*
X161055680Y-76946560D01*
X161015680Y-88950560D02*
X161015680Y-76982560D01*
X160975680Y-88914560D02*
X160975680Y-77018560D01*
X160935680Y-88878560D02*
X160935680Y-77054560D01*
X160895680Y-88841560D02*
X160895680Y-77091560D01*
X160855680Y-88803560D02*
X160855680Y-77129560D01*
X160815680Y-88765560D02*
X160815680Y-77167560D01*
X160775680Y-88726560D02*
X160775680Y-77206560D01*
X160735680Y-88687560D02*
X160735680Y-77245560D01*
X160695680Y-88647560D02*
X160695680Y-77285560D01*
X160655680Y-88607560D02*
X160655680Y-77325560D01*
X160615680Y-88566560D02*
X160615680Y-77366560D01*
X160575680Y-88525560D02*
X160575680Y-77407560D01*
X160535680Y-88483560D02*
X160535680Y-77449560D01*
X160495680Y-88440560D02*
X160495680Y-77492560D01*
X160455680Y-88397560D02*
X160455680Y-77535560D01*
X160415680Y-88353560D02*
X160415680Y-77579560D01*
X160375680Y-88309560D02*
X160375680Y-77623560D01*
X160335680Y-88263560D02*
X160335680Y-77669560D01*
X160295680Y-88217560D02*
X160295680Y-77715560D01*
X160255680Y-88171560D02*
X160255680Y-77761560D01*
X160215680Y-88123560D02*
X160215680Y-77809560D01*
X160175680Y-88075560D02*
X160175680Y-77857560D01*
X160135680Y-88026560D02*
X160135680Y-77906560D01*
X160095680Y-87977560D02*
X160095680Y-77955560D01*
X160055680Y-87926560D02*
X160055680Y-78006560D01*
X160015680Y-87875560D02*
X160015680Y-78057560D01*
X159975680Y-87823560D02*
X159975680Y-78109560D01*
X159935680Y-87770560D02*
X159935680Y-78162560D01*
X159895680Y-87716560D02*
X159895680Y-78216560D01*
X159855680Y-87661560D02*
X159855680Y-78271560D01*
X159815680Y-87605560D02*
X159815680Y-78327560D01*
X159775680Y-87548560D02*
X159775680Y-78384560D01*
X159735680Y-87490560D02*
X159735680Y-78442560D01*
X159695680Y-87431560D02*
X159695680Y-78501560D01*
X159655680Y-87371560D02*
X159655680Y-78561560D01*
X159615680Y-87309560D02*
X159615680Y-78623560D01*
X159575680Y-87247560D02*
X159575680Y-78685560D01*
X159535680Y-87183560D02*
X159535680Y-78749560D01*
X159495680Y-87117560D02*
X159495680Y-78815560D01*
X159455680Y-87050560D02*
X159455680Y-78882560D01*
X159415680Y-86982560D02*
X159415680Y-78950560D01*
X159375680Y-86912560D02*
X159375680Y-79020560D01*
X159335680Y-86841560D02*
X159335680Y-79091560D01*
X159295680Y-86768560D02*
X159295680Y-79164560D01*
X159255680Y-86692560D02*
X159255680Y-79240560D01*
X159215680Y-86615560D02*
X159215680Y-79317560D01*
X159175680Y-86536560D02*
X159175680Y-79396560D01*
X159135680Y-86455560D02*
X159135680Y-79477560D01*
X159095680Y-86371560D02*
X159095680Y-79561560D01*
X159055680Y-86285560D02*
X159055680Y-79647560D01*
X159015680Y-86196560D02*
X159015680Y-79736560D01*
X158975680Y-86104560D02*
X158975680Y-79828560D01*
X158935680Y-86008560D02*
X158935680Y-79924560D01*
X158895680Y-85909560D02*
X158895680Y-80023560D01*
X158855680Y-85807560D02*
X158855680Y-80125560D01*
X158815680Y-85699560D02*
X158815680Y-80233560D01*
X158775680Y-85587560D02*
X158775680Y-80345560D01*
X158735680Y-85469560D02*
X158735680Y-80463560D01*
X158695680Y-85345560D02*
X158695680Y-80587560D01*
X158655680Y-85214560D02*
X158655680Y-80718560D01*
X158615680Y-85073560D02*
X158615680Y-80859560D01*
X158575680Y-84922560D02*
X158575680Y-81010560D01*
X158535680Y-84758560D02*
X158535680Y-81174560D01*
X158495680Y-84576560D02*
X158495680Y-81356560D01*
X158455680Y-84371560D02*
X158455680Y-81561560D01*
X158415680Y-84130560D02*
X158415680Y-81802560D01*
X158375680Y-83825560D02*
X158375680Y-82107560D01*
X158335680Y-83329560D02*
X158335680Y-82603560D01*
X173366680Y-82966560D02*
X171566680Y-82966560D01*
X172466680Y-83866560D02*
X172466680Y-82066560D01*
X174506680Y-82966560D02*
G75*
G03X174506680Y-82966560I-8090000J0D01*
G01*
X148903680Y-138266920D02*
X148903680Y-112166920D01*
X148863680Y-138266920D02*
X148863680Y-112166920D01*
X148823680Y-138266920D02*
X148823680Y-112166920D01*
X148783680Y-138266920D02*
X148783680Y-112166920D01*
X148743680Y-138266920D02*
X148743680Y-112166920D01*
X148703680Y-138265920D02*
X148703680Y-112167920D01*
X148663680Y-138264920D02*
X148663680Y-112168920D01*
X148623680Y-138264920D02*
X148623680Y-112168920D01*
X148583680Y-138263920D02*
X148583680Y-112169920D01*
X148543680Y-138262920D02*
X148543680Y-112170920D01*
X148503680Y-138260920D02*
X148503680Y-112172920D01*
X148463680Y-138259920D02*
X148463680Y-112173920D01*
X148423680Y-138258920D02*
X148423680Y-112174920D01*
X148383680Y-138256920D02*
X148383680Y-112176920D01*
X148343680Y-138255920D02*
X148343680Y-112177920D01*
X148303680Y-138253920D02*
X148303680Y-112179920D01*
X148263680Y-138251920D02*
X148263680Y-112181920D01*
X148223680Y-138249920D02*
X148223680Y-112183920D01*
X148182680Y-138247920D02*
X148182680Y-112185920D01*
X148142680Y-138244920D02*
X148142680Y-112188920D01*
X148102680Y-138242920D02*
X148102680Y-112190920D01*
X148062680Y-138240920D02*
X148062680Y-112192920D01*
X148022680Y-138237920D02*
X148022680Y-112195920D01*
X147982680Y-138234920D02*
X147982680Y-112198920D01*
X147942680Y-138231920D02*
X147942680Y-112201920D01*
X147902680Y-138228920D02*
X147902680Y-112204920D01*
X147862680Y-138225920D02*
X147862680Y-112207920D01*
X147822680Y-138222920D02*
X147822680Y-112210920D01*
X147782680Y-138218920D02*
X147782680Y-112214920D01*
X147742680Y-138215920D02*
X147742680Y-112217920D01*
X147702680Y-138211920D02*
X147702680Y-112221920D01*
X147662680Y-138208920D02*
X147662680Y-112224920D01*
X147622680Y-138204920D02*
X147622680Y-112228920D01*
X147582680Y-138200920D02*
X147582680Y-112232920D01*
X147542680Y-138196920D02*
X147542680Y-112236920D01*
X147502680Y-138191920D02*
X147502680Y-112241920D01*
X147462680Y-138187920D02*
X147462680Y-112245920D01*
X147422680Y-138183920D02*
X147422680Y-112249920D01*
X147382680Y-138178920D02*
X147382680Y-112254920D01*
X147342680Y-138173920D02*
X147342680Y-112259920D01*
X147302680Y-138168920D02*
X147302680Y-112264920D01*
X147262680Y-138163920D02*
X147262680Y-112269920D01*
X147222680Y-138158920D02*
X147222680Y-112274920D01*
X147182680Y-138153920D02*
X147182680Y-112279920D01*
X147142680Y-138148920D02*
X147142680Y-112284920D01*
X147102680Y-138142920D02*
X147102680Y-112290920D01*
X147062680Y-138137920D02*
X147062680Y-112295920D01*
X147022680Y-138131920D02*
X147022680Y-112301920D01*
X146982680Y-138125920D02*
X146982680Y-112307920D01*
X146942680Y-138119920D02*
X146942680Y-112313920D01*
X146902680Y-138113920D02*
X146902680Y-112319920D01*
X146862680Y-138107920D02*
X146862680Y-112325920D01*
X146822680Y-138100920D02*
X146822680Y-112332920D01*
X146782680Y-138094920D02*
X146782680Y-112338920D01*
X146742680Y-138087920D02*
X146742680Y-112345920D01*
X146702680Y-138080920D02*
X146702680Y-112352920D01*
X146662680Y-138073920D02*
X146662680Y-112359920D01*
X146622680Y-138066920D02*
X146622680Y-112366920D01*
X146582680Y-138059920D02*
X146582680Y-112373920D01*
X146542680Y-138052920D02*
X146542680Y-112380920D01*
X146502680Y-138045920D02*
X146502680Y-112387920D01*
X146462680Y-138037920D02*
X146462680Y-112395920D01*
X146422680Y-138029920D02*
X146422680Y-112403920D01*
X146382680Y-138022920D02*
X146382680Y-112410920D01*
X146342680Y-138014920D02*
X146342680Y-112418920D01*
X146302680Y-138006920D02*
X146302680Y-112426920D01*
X146262680Y-137998920D02*
X146262680Y-112434920D01*
X146222680Y-137989920D02*
X146222680Y-112443920D01*
X146182680Y-137981920D02*
X146182680Y-112451920D01*
X146142680Y-137972920D02*
X146142680Y-112460920D01*
X146102680Y-137964920D02*
X146102680Y-112468920D01*
X146062680Y-137955920D02*
X146062680Y-127396920D01*
X146062680Y-123036920D02*
X146062680Y-112477920D01*
X146022680Y-137946920D02*
X146022680Y-127396920D01*
X146022680Y-123036920D02*
X146022680Y-112486920D01*
X145982680Y-137937920D02*
X145982680Y-127396920D01*
X145982680Y-123036920D02*
X145982680Y-112495920D01*
X145942680Y-137927920D02*
X145942680Y-127396920D01*
X145942680Y-123036920D02*
X145942680Y-112505920D01*
X145902680Y-137918920D02*
X145902680Y-127396920D01*
X145902680Y-123036920D02*
X145902680Y-112514920D01*
X145862680Y-137909920D02*
X145862680Y-127396920D01*
X145862680Y-123036920D02*
X145862680Y-112523920D01*
X145822680Y-137899920D02*
X145822680Y-127396920D01*
X145822680Y-123036920D02*
X145822680Y-112533920D01*
X145782680Y-137889920D02*
X145782680Y-127396920D01*
X145782680Y-123036920D02*
X145782680Y-112543920D01*
X145742680Y-137879920D02*
X145742680Y-127396920D01*
X145742680Y-123036920D02*
X145742680Y-112553920D01*
X145702680Y-137869920D02*
X145702680Y-127396920D01*
X145702680Y-123036920D02*
X145702680Y-112563920D01*
X145662680Y-137859920D02*
X145662680Y-127396920D01*
X145662680Y-123036920D02*
X145662680Y-112573920D01*
X145622680Y-137849920D02*
X145622680Y-127396920D01*
X145622680Y-123036920D02*
X145622680Y-112583920D01*
X145582680Y-137838920D02*
X145582680Y-127396920D01*
X145582680Y-123036920D02*
X145582680Y-112594920D01*
X145542680Y-137828920D02*
X145542680Y-127396920D01*
X145542680Y-123036920D02*
X145542680Y-112604920D01*
X145502680Y-137817920D02*
X145502680Y-127396920D01*
X145502680Y-123036920D02*
X145502680Y-112615920D01*
X145462680Y-137806920D02*
X145462680Y-127396920D01*
X145462680Y-123036920D02*
X145462680Y-112626920D01*
X145422680Y-137795920D02*
X145422680Y-127396920D01*
X145422680Y-123036920D02*
X145422680Y-112637920D01*
X145382680Y-137784920D02*
X145382680Y-127396920D01*
X145382680Y-123036920D02*
X145382680Y-112648920D01*
X145342680Y-137773920D02*
X145342680Y-127396920D01*
X145342680Y-123036920D02*
X145342680Y-112659920D01*
X145302680Y-137762920D02*
X145302680Y-127396920D01*
X145302680Y-123036920D02*
X145302680Y-112670920D01*
X145262680Y-137750920D02*
X145262680Y-127396920D01*
X145262680Y-123036920D02*
X145262680Y-112682920D01*
X145222680Y-137739920D02*
X145222680Y-127396920D01*
X145222680Y-123036920D02*
X145222680Y-112693920D01*
X145182680Y-137727920D02*
X145182680Y-127396920D01*
X145182680Y-123036920D02*
X145182680Y-112705920D01*
X145142680Y-137715920D02*
X145142680Y-127396920D01*
X145142680Y-123036920D02*
X145142680Y-112717920D01*
X145102680Y-137703920D02*
X145102680Y-127396920D01*
X145102680Y-123036920D02*
X145102680Y-112729920D01*
X145062680Y-137691920D02*
X145062680Y-127396920D01*
X145062680Y-123036920D02*
X145062680Y-112741920D01*
X145022680Y-137678920D02*
X145022680Y-127396920D01*
X145022680Y-123036920D02*
X145022680Y-112754920D01*
X144982680Y-137666920D02*
X144982680Y-127396920D01*
X144982680Y-123036920D02*
X144982680Y-112766920D01*
X144942680Y-137653920D02*
X144942680Y-127396920D01*
X144942680Y-123036920D02*
X144942680Y-112779920D01*
X144902680Y-137640920D02*
X144902680Y-127396920D01*
X144902680Y-123036920D02*
X144902680Y-112792920D01*
X144862680Y-137627920D02*
X144862680Y-127396920D01*
X144862680Y-123036920D02*
X144862680Y-112805920D01*
X144822680Y-137614920D02*
X144822680Y-127396920D01*
X144822680Y-123036920D02*
X144822680Y-112818920D01*
X144782680Y-137601920D02*
X144782680Y-127396920D01*
X144782680Y-123036920D02*
X144782680Y-112831920D01*
X144742680Y-137588920D02*
X144742680Y-127396920D01*
X144742680Y-123036920D02*
X144742680Y-112844920D01*
X144702680Y-137574920D02*
X144702680Y-127396920D01*
X144702680Y-123036920D02*
X144702680Y-112858920D01*
X144662680Y-137561920D02*
X144662680Y-127396920D01*
X144662680Y-123036920D02*
X144662680Y-112871920D01*
X144622680Y-137547920D02*
X144622680Y-127396920D01*
X144622680Y-123036920D02*
X144622680Y-112885920D01*
X144582680Y-137533920D02*
X144582680Y-127396920D01*
X144582680Y-123036920D02*
X144582680Y-112899920D01*
X144542680Y-137519920D02*
X144542680Y-127396920D01*
X144542680Y-123036920D02*
X144542680Y-112913920D01*
X144502680Y-137505920D02*
X144502680Y-127396920D01*
X144502680Y-123036920D02*
X144502680Y-112927920D01*
X144462680Y-137490920D02*
X144462680Y-127396920D01*
X144462680Y-123036920D02*
X144462680Y-112942920D01*
X144422680Y-137476920D02*
X144422680Y-127396920D01*
X144422680Y-123036920D02*
X144422680Y-112956920D01*
X144382680Y-137461920D02*
X144382680Y-127396920D01*
X144382680Y-123036920D02*
X144382680Y-112971920D01*
X144342680Y-137447920D02*
X144342680Y-127396920D01*
X144342680Y-123036920D02*
X144342680Y-112985920D01*
X144302680Y-137432920D02*
X144302680Y-127396920D01*
X144302680Y-123036920D02*
X144302680Y-113000920D01*
X144262680Y-137417920D02*
X144262680Y-127396920D01*
X144262680Y-123036920D02*
X144262680Y-113015920D01*
X144222680Y-137401920D02*
X144222680Y-127396920D01*
X144222680Y-123036920D02*
X144222680Y-113031920D01*
X144182680Y-137386920D02*
X144182680Y-127396920D01*
X144182680Y-123036920D02*
X144182680Y-113046920D01*
X144142680Y-137370920D02*
X144142680Y-127396920D01*
X144142680Y-123036920D02*
X144142680Y-113062920D01*
X144102680Y-137355920D02*
X144102680Y-127396920D01*
X144102680Y-123036920D02*
X144102680Y-113077920D01*
X144062680Y-137339920D02*
X144062680Y-127396920D01*
X144062680Y-123036920D02*
X144062680Y-113093920D01*
X144022680Y-137323920D02*
X144022680Y-127396920D01*
X144022680Y-123036920D02*
X144022680Y-113109920D01*
X143982680Y-137307920D02*
X143982680Y-127396920D01*
X143982680Y-123036920D02*
X143982680Y-113125920D01*
X143942680Y-137290920D02*
X143942680Y-127396920D01*
X143942680Y-123036920D02*
X143942680Y-113142920D01*
X143902680Y-137274920D02*
X143902680Y-127396920D01*
X143902680Y-123036920D02*
X143902680Y-113158920D01*
X143862680Y-137257920D02*
X143862680Y-127396920D01*
X143862680Y-123036920D02*
X143862680Y-113175920D01*
X143822680Y-137241920D02*
X143822680Y-127396920D01*
X143822680Y-123036920D02*
X143822680Y-113191920D01*
X143782680Y-137224920D02*
X143782680Y-127396920D01*
X143782680Y-123036920D02*
X143782680Y-113208920D01*
X143742680Y-137207920D02*
X143742680Y-127396920D01*
X143742680Y-123036920D02*
X143742680Y-113225920D01*
X143702680Y-137189920D02*
X143702680Y-127396920D01*
X143702680Y-123036920D02*
X143702680Y-113243920D01*
X143662680Y-137172920D02*
X143662680Y-127396920D01*
X143662680Y-123036920D02*
X143662680Y-113260920D01*
X143622680Y-137154920D02*
X143622680Y-127396920D01*
X143622680Y-123036920D02*
X143622680Y-113278920D01*
X143582680Y-137137920D02*
X143582680Y-127396920D01*
X143582680Y-123036920D02*
X143582680Y-113295920D01*
X143542680Y-137119920D02*
X143542680Y-127396920D01*
X143542680Y-123036920D02*
X143542680Y-113313920D01*
X143502680Y-137101920D02*
X143502680Y-127396920D01*
X143502680Y-123036920D02*
X143502680Y-113331920D01*
X143462680Y-137083920D02*
X143462680Y-127396920D01*
X143462680Y-123036920D02*
X143462680Y-113349920D01*
X143422680Y-137064920D02*
X143422680Y-127396920D01*
X143422680Y-123036920D02*
X143422680Y-113368920D01*
X143382680Y-137046920D02*
X143382680Y-127396920D01*
X143382680Y-123036920D02*
X143382680Y-113386920D01*
X143342680Y-137027920D02*
X143342680Y-127396920D01*
X143342680Y-123036920D02*
X143342680Y-113405920D01*
X143302680Y-137008920D02*
X143302680Y-127396920D01*
X143302680Y-123036920D02*
X143302680Y-113424920D01*
X143262680Y-136989920D02*
X143262680Y-127396920D01*
X143262680Y-123036920D02*
X143262680Y-113443920D01*
X143222680Y-136970920D02*
X143222680Y-127396920D01*
X143222680Y-123036920D02*
X143222680Y-113462920D01*
X143182680Y-136951920D02*
X143182680Y-127396920D01*
X143182680Y-123036920D02*
X143182680Y-113481920D01*
X143142680Y-136931920D02*
X143142680Y-127396920D01*
X143142680Y-123036920D02*
X143142680Y-113501920D01*
X143102680Y-136911920D02*
X143102680Y-127396920D01*
X143102680Y-123036920D02*
X143102680Y-113521920D01*
X143062680Y-136892920D02*
X143062680Y-127396920D01*
X143062680Y-123036920D02*
X143062680Y-113540920D01*
X143022680Y-136872920D02*
X143022680Y-127396920D01*
X143022680Y-123036920D02*
X143022680Y-113560920D01*
X142982680Y-136851920D02*
X142982680Y-127396920D01*
X142982680Y-123036920D02*
X142982680Y-113581920D01*
X142942680Y-136831920D02*
X142942680Y-127396920D01*
X142942680Y-123036920D02*
X142942680Y-113601920D01*
X142902680Y-136810920D02*
X142902680Y-127396920D01*
X142902680Y-123036920D02*
X142902680Y-113622920D01*
X142862680Y-136790920D02*
X142862680Y-127396920D01*
X142862680Y-123036920D02*
X142862680Y-113642920D01*
X142822680Y-136769920D02*
X142822680Y-127396920D01*
X142822680Y-123036920D02*
X142822680Y-113663920D01*
X142782680Y-136748920D02*
X142782680Y-127396920D01*
X142782680Y-123036920D02*
X142782680Y-113684920D01*
X142742680Y-136726920D02*
X142742680Y-127396920D01*
X142742680Y-123036920D02*
X142742680Y-113706920D01*
X142702680Y-136705920D02*
X142702680Y-127396920D01*
X142702680Y-123036920D02*
X142702680Y-113727920D01*
X142662680Y-136683920D02*
X142662680Y-127396920D01*
X142662680Y-123036920D02*
X142662680Y-113749920D01*
X142622680Y-136662920D02*
X142622680Y-127396920D01*
X142622680Y-123036920D02*
X142622680Y-113770920D01*
X142582680Y-136640920D02*
X142582680Y-127396920D01*
X142582680Y-123036920D02*
X142582680Y-113792920D01*
X142542680Y-136618920D02*
X142542680Y-127396920D01*
X142542680Y-123036920D02*
X142542680Y-113814920D01*
X142502680Y-136595920D02*
X142502680Y-127396920D01*
X142502680Y-123036920D02*
X142502680Y-113837920D01*
X142462680Y-136573920D02*
X142462680Y-127396920D01*
X142462680Y-123036920D02*
X142462680Y-113859920D01*
X142422680Y-136550920D02*
X142422680Y-127396920D01*
X142422680Y-123036920D02*
X142422680Y-113882920D01*
X142382680Y-136527920D02*
X142382680Y-127396920D01*
X142382680Y-123036920D02*
X142382680Y-113905920D01*
X142342680Y-136504920D02*
X142342680Y-127396920D01*
X142342680Y-123036920D02*
X142342680Y-113928920D01*
X142302680Y-136481920D02*
X142302680Y-127396920D01*
X142302680Y-123036920D02*
X142302680Y-113951920D01*
X142262680Y-136457920D02*
X142262680Y-127396920D01*
X142262680Y-123036920D02*
X142262680Y-113975920D01*
X142222680Y-136434920D02*
X142222680Y-127396920D01*
X142222680Y-123036920D02*
X142222680Y-113998920D01*
X142182680Y-136410920D02*
X142182680Y-127396920D01*
X142182680Y-123036920D02*
X142182680Y-114022920D01*
X142142680Y-136386920D02*
X142142680Y-127396920D01*
X142142680Y-123036920D02*
X142142680Y-114046920D01*
X142102680Y-136362920D02*
X142102680Y-127396920D01*
X142102680Y-123036920D02*
X142102680Y-114070920D01*
X142062680Y-136337920D02*
X142062680Y-127396920D01*
X142062680Y-123036920D02*
X142062680Y-114095920D01*
X142022680Y-136313920D02*
X142022680Y-127396920D01*
X142022680Y-123036920D02*
X142022680Y-114119920D01*
X141982680Y-136288920D02*
X141982680Y-127396920D01*
X141982680Y-123036920D02*
X141982680Y-114144920D01*
X141942680Y-136263920D02*
X141942680Y-127396920D01*
X141942680Y-123036920D02*
X141942680Y-114169920D01*
X141902680Y-136238920D02*
X141902680Y-127396920D01*
X141902680Y-123036920D02*
X141902680Y-114194920D01*
X141862680Y-136212920D02*
X141862680Y-127396920D01*
X141862680Y-123036920D02*
X141862680Y-114220920D01*
X141822680Y-136187920D02*
X141822680Y-127396920D01*
X141822680Y-123036920D02*
X141822680Y-114245920D01*
X141782680Y-136161920D02*
X141782680Y-127396920D01*
X141782680Y-123036920D02*
X141782680Y-114271920D01*
X141742680Y-136135920D02*
X141742680Y-127396920D01*
X141742680Y-123036920D02*
X141742680Y-114297920D01*
X141702680Y-136108920D02*
X141702680Y-114324920D01*
X141662680Y-136082920D02*
X141662680Y-114350920D01*
X141622680Y-136055920D02*
X141622680Y-114377920D01*
X141582680Y-136028920D02*
X141582680Y-114404920D01*
X141542680Y-136001920D02*
X141542680Y-114431920D01*
X141502680Y-135974920D02*
X141502680Y-114458920D01*
X141462680Y-135947920D02*
X141462680Y-114485920D01*
X141422680Y-135919920D02*
X141422680Y-114513920D01*
X141382680Y-135891920D02*
X141382680Y-114541920D01*
X141342680Y-135863920D02*
X141342680Y-114569920D01*
X141302680Y-135834920D02*
X141302680Y-114598920D01*
X141262680Y-135806920D02*
X141262680Y-114626920D01*
X141222680Y-135777920D02*
X141222680Y-114655920D01*
X141182680Y-135748920D02*
X141182680Y-114684920D01*
X141142680Y-135718920D02*
X141142680Y-114714920D01*
X141102680Y-135689920D02*
X141102680Y-114743920D01*
X141062680Y-135659920D02*
X141062680Y-114773920D01*
X141022680Y-135629920D02*
X141022680Y-114803920D01*
X140982680Y-135599920D02*
X140982680Y-114833920D01*
X140942680Y-135568920D02*
X140942680Y-114864920D01*
X140902680Y-135537920D02*
X140902680Y-114895920D01*
X140862680Y-135506920D02*
X140862680Y-114926920D01*
X140822680Y-135475920D02*
X140822680Y-114957920D01*
X140782680Y-135444920D02*
X140782680Y-114988920D01*
X140742680Y-135412920D02*
X140742680Y-115020920D01*
X140703680Y-135380920D02*
X140703680Y-115052920D01*
X140663680Y-135348920D02*
X140663680Y-115084920D01*
X140623680Y-135315920D02*
X140623680Y-115117920D01*
X140583680Y-135282920D02*
X140583680Y-115150920D01*
X140543680Y-135249920D02*
X140543680Y-115183920D01*
X140503680Y-135216920D02*
X140503680Y-115216920D01*
X140463680Y-135182920D02*
X140463680Y-115250920D01*
X140423680Y-135148920D02*
X140423680Y-115284920D01*
X140383680Y-135114920D02*
X140383680Y-115318920D01*
X140343680Y-135080920D02*
X140343680Y-115352920D01*
X140303680Y-135045920D02*
X140303680Y-115387920D01*
X140263680Y-135010920D02*
X140263680Y-115422920D01*
X140223680Y-134975920D02*
X140223680Y-115457920D01*
X140183680Y-134939920D02*
X140183680Y-115493920D01*
X140143680Y-134903920D02*
X140143680Y-115529920D01*
X140103680Y-134867920D02*
X140103680Y-115565920D01*
X140063680Y-134831920D02*
X140063680Y-115601920D01*
X140023680Y-134794920D02*
X140023680Y-115638920D01*
X139983680Y-134757920D02*
X139983680Y-115675920D01*
X139943680Y-134719920D02*
X139943680Y-115713920D01*
X139903680Y-134682920D02*
X139903680Y-115750920D01*
X139863680Y-134644920D02*
X139863680Y-115788920D01*
X139823680Y-134605920D02*
X139823680Y-115827920D01*
X139783680Y-134567920D02*
X139783680Y-115865920D01*
X139743680Y-134528920D02*
X139743680Y-115904920D01*
X139703680Y-134488920D02*
X139703680Y-115944920D01*
X139663680Y-134449920D02*
X139663680Y-115983920D01*
X139623680Y-134408920D02*
X139623680Y-116024920D01*
X139583680Y-134368920D02*
X139583680Y-116064920D01*
X139543680Y-134327920D02*
X139543680Y-116105920D01*
X139503680Y-134286920D02*
X139503680Y-116146920D01*
X139463680Y-134245920D02*
X139463680Y-116187920D01*
X139423680Y-134203920D02*
X139423680Y-116229920D01*
X139383680Y-134161920D02*
X139383680Y-116271920D01*
X139343680Y-134118920D02*
X139343680Y-116314920D01*
X139303680Y-134075920D02*
X139303680Y-116357920D01*
X139263680Y-134032920D02*
X139263680Y-116400920D01*
X139223680Y-133988920D02*
X139223680Y-116444920D01*
X139183680Y-133944920D02*
X139183680Y-116488920D01*
X139143680Y-133899920D02*
X139143680Y-116533920D01*
X139103680Y-133855920D02*
X139103680Y-116577920D01*
X139063680Y-133809920D02*
X139063680Y-116623920D01*
X139023680Y-133763920D02*
X139023680Y-116669920D01*
X138983680Y-133717920D02*
X138983680Y-116715920D01*
X138943680Y-133670920D02*
X138943680Y-116762920D01*
X138903680Y-133623920D02*
X138903680Y-116809920D01*
X138863680Y-133576920D02*
X138863680Y-116856920D01*
X138823680Y-133528920D02*
X138823680Y-116904920D01*
X138783680Y-133479920D02*
X138783680Y-116953920D01*
X138743680Y-133430920D02*
X138743680Y-117002920D01*
X138703680Y-133381920D02*
X138703680Y-117051920D01*
X138663680Y-133331920D02*
X138663680Y-117101920D01*
X138623680Y-133280920D02*
X138623680Y-117152920D01*
X138583680Y-133229920D02*
X138583680Y-117203920D01*
X138543680Y-133178920D02*
X138543680Y-117254920D01*
X138503680Y-133126920D02*
X138503680Y-117306920D01*
X138463680Y-133073920D02*
X138463680Y-117359920D01*
X138423680Y-133020920D02*
X138423680Y-117412920D01*
X138383680Y-132966920D02*
X138383680Y-117466920D01*
X138343680Y-132912920D02*
X138343680Y-117520920D01*
X138303680Y-132857920D02*
X138303680Y-117575920D01*
X138263680Y-132801920D02*
X138263680Y-117631920D01*
X138223680Y-132745920D02*
X138223680Y-117687920D01*
X138183680Y-132688920D02*
X138183680Y-117744920D01*
X138143680Y-132631920D02*
X138143680Y-117801920D01*
X138103680Y-132573920D02*
X138103680Y-117859920D01*
X138063680Y-132514920D02*
X138063680Y-117918920D01*
X138023680Y-132455920D02*
X138023680Y-117977920D01*
X137983680Y-132395920D02*
X137983680Y-118037920D01*
X137943680Y-132334920D02*
X137943680Y-118098920D01*
X137903680Y-132272920D02*
X137903680Y-118160920D01*
X137863680Y-132210920D02*
X137863680Y-118222920D01*
X137823680Y-132147920D02*
X137823680Y-118285920D01*
X137783680Y-132083920D02*
X137783680Y-118349920D01*
X137743680Y-132018920D02*
X137743680Y-118414920D01*
X137703680Y-131952920D02*
X137703680Y-118480920D01*
X137663680Y-131885920D02*
X137663680Y-118547920D01*
X137623680Y-131818920D02*
X137623680Y-118614920D01*
X137583680Y-131750920D02*
X137583680Y-118682920D01*
X137543680Y-131680920D02*
X137543680Y-118752920D01*
X137503680Y-131610920D02*
X137503680Y-118822920D01*
X137463680Y-131538920D02*
X137463680Y-118894920D01*
X137423680Y-131466920D02*
X137423680Y-118966920D01*
X137383680Y-131392920D02*
X137383680Y-119040920D01*
X137343680Y-131318920D02*
X137343680Y-119114920D01*
X137303680Y-131242920D02*
X137303680Y-119190920D01*
X137263680Y-131165920D02*
X137263680Y-119267920D01*
X137223680Y-131086920D02*
X137223680Y-119346920D01*
X137183680Y-131007920D02*
X137183680Y-119425920D01*
X137143680Y-130925920D02*
X137143680Y-119507920D01*
X137103680Y-130843920D02*
X137103680Y-119589920D01*
X137063680Y-130759920D02*
X137063680Y-119673920D01*
X137023680Y-130673920D02*
X137023680Y-119759920D01*
X136983680Y-130586920D02*
X136983680Y-119846920D01*
X136943680Y-130497920D02*
X136943680Y-119935920D01*
X136903680Y-130406920D02*
X136903680Y-120026920D01*
X136863680Y-130313920D02*
X136863680Y-120119920D01*
X136823680Y-130218920D02*
X136823680Y-120214920D01*
X136783680Y-130122920D02*
X136783680Y-120310920D01*
X136743680Y-130022920D02*
X136743680Y-120410920D01*
X136703680Y-129921920D02*
X136703680Y-120511920D01*
X136663680Y-129817920D02*
X136663680Y-120615920D01*
X136623680Y-129710920D02*
X136623680Y-120722920D01*
X136583680Y-129600920D02*
X136583680Y-120832920D01*
X136543680Y-129487920D02*
X136543680Y-120945920D01*
X136503680Y-129370920D02*
X136503680Y-121062920D01*
X136463680Y-129250920D02*
X136463680Y-121182920D01*
X136423680Y-129126920D02*
X136423680Y-121306920D01*
X136383680Y-128997920D02*
X136383680Y-121435920D01*
X136343680Y-128864920D02*
X136343680Y-121568920D01*
X136303680Y-128724920D02*
X136303680Y-121708920D01*
X136263680Y-128579920D02*
X136263680Y-121853920D01*
X136223680Y-128427920D02*
X136223680Y-122005920D01*
X136183680Y-128267920D02*
X136183680Y-122165920D01*
X136143680Y-128097920D02*
X136143680Y-122335920D01*
X136103680Y-127917920D02*
X136103680Y-122515920D01*
X136063680Y-127723920D02*
X136063680Y-122709920D01*
X136023680Y-127512920D02*
X136023680Y-122920920D01*
X135983680Y-127279920D02*
X135983680Y-123153920D01*
X135943680Y-127017920D02*
X135943680Y-123415920D01*
X135903680Y-126709920D02*
X135903680Y-123723920D01*
X135863680Y-126320920D02*
X135863680Y-124112920D01*
X135823680Y-125688920D02*
X135823680Y-124744920D01*
X159103680Y-125216920D02*
X156103680Y-125216920D01*
X157603680Y-126716920D02*
X157603680Y-123716920D01*
X161993680Y-125216920D02*
G75*
G03X161993680Y-125216920I-13090000J0D01*
G01*
X125435360Y-109590840D02*
X125435360Y-98160840D01*
X125435360Y-98160840D02*
X126070360Y-97525840D01*
X126070360Y-97525840D02*
X137500360Y-97525840D01*
X137500360Y-97525840D02*
X138135360Y-98160840D01*
X138135360Y-98160840D02*
X138135360Y-109590840D01*
X137500360Y-110225840D02*
X126070360Y-110225840D01*
X126070360Y-110225840D02*
X125435360Y-109590840D01*
X138135360Y-109590840D02*
X137500360Y-110225840D01*
X160289240Y-109494320D02*
X160289240Y-98064320D01*
X160289240Y-98064320D02*
X160924240Y-97429320D01*
X160924240Y-97429320D02*
X172354240Y-97429320D01*
X172354240Y-97429320D02*
X172989240Y-98064320D01*
X172989240Y-98064320D02*
X172989240Y-109494320D01*
X172354240Y-110129320D02*
X160924240Y-110129320D01*
X160924240Y-110129320D02*
X160289240Y-109494320D01*
X172989240Y-109494320D02*
X172354240Y-110129320D01*
X151055480Y-80816840D02*
X147455480Y-80816840D01*
X151093958Y-80828362D02*
G75*
G02X149255480Y-85266840I-1838478J-1838478D01*
G01*
X147417002Y-80828362D02*
G75*
G03X149255480Y-85266840I1838478J-1838478D01*
G01*
X145380000Y-104989000D02*
X145380000Y-107609000D01*
X145380000Y-107609000D02*
X151800000Y-107609000D01*
X151800000Y-107609000D02*
X151800000Y-104989000D01*
X151800000Y-104989000D02*
X145380000Y-104989000D01*
X144490000Y-106299000D02*
X145380000Y-106299000D01*
X152690000Y-106299000D02*
X151800000Y-106299000D01*
X145761000Y-88804120D02*
X145761000Y-91424120D01*
X145761000Y-91424120D02*
X152181000Y-91424120D01*
X152181000Y-91424120D02*
X152181000Y-88804120D01*
X152181000Y-88804120D02*
X145761000Y-88804120D01*
X144871000Y-90114120D02*
X145761000Y-90114120D01*
X153071000Y-90114120D02*
X152181000Y-90114120D01*
X151906680Y-102330880D02*
X151906680Y-99710880D01*
X151906680Y-99710880D02*
X145486680Y-99710880D01*
X145486680Y-99710880D02*
X145486680Y-102330880D01*
X145486680Y-102330880D02*
X151906680Y-102330880D01*
X152796680Y-101020880D02*
X151906680Y-101020880D01*
X144596680Y-101020880D02*
X145486680Y-101020880D01*
X145562880Y-94153360D02*
X145562880Y-96773360D01*
X145562880Y-96773360D02*
X151982880Y-96773360D01*
X151982880Y-96773360D02*
X151982880Y-94153360D01*
X151982880Y-94153360D02*
X145562880Y-94153360D01*
X144672880Y-95463360D02*
X145562880Y-95463360D01*
X152872880Y-95463360D02*
X151982880Y-95463360D01*
D12*
X132262894Y-92983143D02*
X132215275Y-93030762D01*
X132072418Y-93078381D01*
X131977180Y-93078381D01*
X131834322Y-93030762D01*
X131739084Y-92935524D01*
X131691465Y-92840286D01*
X131643846Y-92649810D01*
X131643846Y-92506952D01*
X131691465Y-92316476D01*
X131739084Y-92221238D01*
X131834322Y-92126000D01*
X131977180Y-92078381D01*
X132072418Y-92078381D01*
X132215275Y-92126000D01*
X132262894Y-92173619D01*
X133215275Y-93078381D02*
X132643846Y-93078381D01*
X132929560Y-93078381D02*
X132929560Y-92078381D01*
X132834322Y-92221238D01*
X132739084Y-92316476D01*
X132643846Y-92364095D01*
X166250014Y-92383703D02*
X166202395Y-92431322D01*
X166059538Y-92478941D01*
X165964300Y-92478941D01*
X165821442Y-92431322D01*
X165726204Y-92336084D01*
X165678585Y-92240846D01*
X165630966Y-92050370D01*
X165630966Y-91907512D01*
X165678585Y-91717036D01*
X165726204Y-91621798D01*
X165821442Y-91526560D01*
X165964300Y-91478941D01*
X166059538Y-91478941D01*
X166202395Y-91526560D01*
X166250014Y-91574179D01*
X166630966Y-91574179D02*
X166678585Y-91526560D01*
X166773823Y-91478941D01*
X167011919Y-91478941D01*
X167107157Y-91526560D01*
X167154776Y-91574179D01*
X167202395Y-91669417D01*
X167202395Y-91764655D01*
X167154776Y-91907512D01*
X166583347Y-92478941D01*
X167202395Y-92478941D01*
X148737014Y-139634063D02*
X148689395Y-139681682D01*
X148546538Y-139729301D01*
X148451300Y-139729301D01*
X148308442Y-139681682D01*
X148213204Y-139586444D01*
X148165585Y-139491206D01*
X148117966Y-139300730D01*
X148117966Y-139157872D01*
X148165585Y-138967396D01*
X148213204Y-138872158D01*
X148308442Y-138776920D01*
X148451300Y-138729301D01*
X148546538Y-138729301D01*
X148689395Y-138776920D01*
X148737014Y-138824539D01*
X149070347Y-138729301D02*
X149689395Y-138729301D01*
X149356061Y-139110253D01*
X149498919Y-139110253D01*
X149594157Y-139157872D01*
X149641776Y-139205491D01*
X149689395Y-139300730D01*
X149689395Y-139538825D01*
X149641776Y-139634063D01*
X149594157Y-139681682D01*
X149498919Y-139729301D01*
X149213204Y-139729301D01*
X149117966Y-139681682D01*
X149070347Y-139634063D01*
X129777265Y-109408221D02*
X129777265Y-108408221D01*
X130158218Y-108408221D01*
X130253456Y-108455840D01*
X130301075Y-108503459D01*
X130348694Y-108598697D01*
X130348694Y-108741554D01*
X130301075Y-108836792D01*
X130253456Y-108884411D01*
X130158218Y-108932030D01*
X129777265Y-108932030D01*
X131301075Y-109408221D02*
X130729646Y-109408221D01*
X131015360Y-109408221D02*
X131015360Y-108408221D01*
X130920122Y-108551078D01*
X130824884Y-108646316D01*
X130729646Y-108693935D01*
X164631145Y-109311701D02*
X164631145Y-108311701D01*
X165012098Y-108311701D01*
X165107336Y-108359320D01*
X165154955Y-108406939D01*
X165202574Y-108502177D01*
X165202574Y-108645034D01*
X165154955Y-108740272D01*
X165107336Y-108787891D01*
X165012098Y-108835510D01*
X164631145Y-108835510D01*
X165583526Y-108406939D02*
X165631145Y-108359320D01*
X165726383Y-108311701D01*
X165964479Y-108311701D01*
X166059717Y-108359320D01*
X166107336Y-108406939D01*
X166154955Y-108502177D01*
X166154955Y-108597415D01*
X166107336Y-108740272D01*
X165535907Y-109311701D01*
X166154955Y-109311701D01*
X149160242Y-86774459D02*
X149065004Y-86726840D01*
X148969766Y-86631602D01*
X148826909Y-86488745D01*
X148731670Y-86441126D01*
X148636432Y-86441126D01*
X148684051Y-86679221D02*
X148588813Y-86631602D01*
X148493575Y-86536364D01*
X148445956Y-86345888D01*
X148445956Y-86012554D01*
X148493575Y-85822078D01*
X148588813Y-85726840D01*
X148684051Y-85679221D01*
X148874528Y-85679221D01*
X148969766Y-85726840D01*
X149065004Y-85822078D01*
X149112623Y-86012554D01*
X149112623Y-86345888D01*
X149065004Y-86536364D01*
X148969766Y-86631602D01*
X148874528Y-86679221D01*
X148684051Y-86679221D01*
X150065004Y-86679221D02*
X149493575Y-86679221D01*
X149779289Y-86679221D02*
X149779289Y-85679221D01*
X149684051Y-85822078D01*
X149588813Y-85917316D01*
X149493575Y-85964935D01*
X148423334Y-104441381D02*
X148090000Y-103965190D01*
X147851905Y-104441381D02*
X147851905Y-103441381D01*
X148232858Y-103441381D01*
X148328096Y-103489000D01*
X148375715Y-103536619D01*
X148423334Y-103631857D01*
X148423334Y-103774714D01*
X148375715Y-103869952D01*
X148328096Y-103917571D01*
X148232858Y-103965190D01*
X147851905Y-103965190D01*
X149375715Y-104441381D02*
X148804286Y-104441381D01*
X149090000Y-104441381D02*
X149090000Y-103441381D01*
X148994762Y-103584238D01*
X148899524Y-103679476D01*
X148804286Y-103727095D01*
X148804334Y-88256501D02*
X148471000Y-87780310D01*
X148232905Y-88256501D02*
X148232905Y-87256501D01*
X148613858Y-87256501D01*
X148709096Y-87304120D01*
X148756715Y-87351739D01*
X148804334Y-87446977D01*
X148804334Y-87589834D01*
X148756715Y-87685072D01*
X148709096Y-87732691D01*
X148613858Y-87780310D01*
X148232905Y-87780310D01*
X149185286Y-87351739D02*
X149232905Y-87304120D01*
X149328143Y-87256501D01*
X149566239Y-87256501D01*
X149661477Y-87304120D01*
X149709096Y-87351739D01*
X149756715Y-87446977D01*
X149756715Y-87542215D01*
X149709096Y-87685072D01*
X149137667Y-88256501D01*
X149756715Y-88256501D01*
X148530014Y-103783261D02*
X148196680Y-103307070D01*
X147958585Y-103783261D02*
X147958585Y-102783261D01*
X148339538Y-102783261D01*
X148434776Y-102830880D01*
X148482395Y-102878499D01*
X148530014Y-102973737D01*
X148530014Y-103116594D01*
X148482395Y-103211832D01*
X148434776Y-103259451D01*
X148339538Y-103307070D01*
X147958585Y-103307070D01*
X148863347Y-102783261D02*
X149482395Y-102783261D01*
X149149061Y-103164213D01*
X149291919Y-103164213D01*
X149387157Y-103211832D01*
X149434776Y-103259451D01*
X149482395Y-103354690D01*
X149482395Y-103592785D01*
X149434776Y-103688023D01*
X149387157Y-103735642D01*
X149291919Y-103783261D01*
X149006204Y-103783261D01*
X148910966Y-103735642D01*
X148863347Y-103688023D01*
X148606214Y-93605741D02*
X148272880Y-93129550D01*
X148034785Y-93605741D02*
X148034785Y-92605741D01*
X148415738Y-92605741D01*
X148510976Y-92653360D01*
X148558595Y-92700979D01*
X148606214Y-92796217D01*
X148606214Y-92939074D01*
X148558595Y-93034312D01*
X148510976Y-93081931D01*
X148415738Y-93129550D01*
X148034785Y-93129550D01*
X149463357Y-92939074D02*
X149463357Y-93605741D01*
X149225261Y-92558122D02*
X148987166Y-93272408D01*
X149606214Y-93272408D01*
M02*
